<?xml version='1.0' encoding='utf-8'?>
<svg xmlns="http://www.w3.org/2000/svg" width="1020" height="593">
<rect fill="white" width="1000%" height="110%" />
<title>1968 US presidential election results</title>
<defs>
  <style type="text/css">
    .state{fill:#698DC5}
	
    
  </style>
</defs>
<g id="outlines" class="state">
  <path id="WYc" d="M353 161.9l-1.5 25.4-4.4 44-2.7-.3-83.3-9.1-27.9-3 2-12 6.9-41 3.8-24.2 1.3-11.2 48.2 7 59.1 6.5z" stroke-width="0.5" stroke="#4772b8" fill="#edf1f8" />
  <path id="WVc" d="M758.9 254.3l5.8-6 2.6-.8 1.6-1.5 1.5-2.2 1.1.3 3.1-.2 4.6-3.6 1.5-.5 1.3 1 2.6 1.2 3 3-.4 4.3-5.4-2.6-4.8-1.8-.1 5.9-2.6 5.7-2.9 2.4-.8 2.3-3 .5-1.7 8.1-2.8.2-1.1-1-1.2-2-2.2.5-.5 5.1-1.8 5.1-5 11 .9 1.4-.1 2-2.2 2.5-1.6-.4-3.1 2.3-2.8-.8-1.8 4.9-3.8 1-2.5-1.3-2.5 1.9-2.3.7-3.2-.8-3.8-4.5-3.5-2.2-2.5-2.5-2.9-3.7-.5-2.3-2.8-1.7-.6-1.3-.2-5.6.3.1 2.4-.2 1.8-1V275l1.7-1.5.1-5.2.9-3.6 1.1-.7.4.3 1 1.1 1.7.5 1.1-1.3-1-3.1v-1.6l3.1-4.6 1.2-1.3 2 .5 2.6-1.8 3.1-3.4 2.4-4.1.2-5.6.5-4.8v-4.9l-1.1-3 .9-1.3.8-.7 4.3 19.3 4.3-.8 11.2-1.3z" stroke-width="0.5" stroke="#4772b8" fill="#edf1f8" />
  <path id="WIc" d="M541.4 109.9l2.9.5 2.9-.6 7.4-3.2 2.9-1.9 2.1-.8 1.9 1.5-1.1 1.1-1.9 3.1-.6 1.9 1 .6 1.8-1 1.1-.2 2.7.8.6 1.1 1.1.2.6-1.1 4 5.3 8.2 1.2 8.2 2.2 2.6 1.1 12.3 2.6 1.6 2.3 3.6 1.2L609 138l1.6 1.4 1.5.9-1.1 2.3-1.8 1.6-2.1 4.7-1.3 2.4.2 1.8 1.5.3 1.1-1.9 1.5-.8.8-2.3 1.9-1.8 2.7-4 4.2-6.3.8-.5.3 1-.2 2.3-2.9 6.8-2.7 5.7-.5 3.2-.6 2.6.8 1.3-.2 2.7-1.9 2.4-.5 1.8.6 3.6.6 3.4-1.5 2.6-.8 2.9-1 3.1 1.1 2.4.6 6.1 1.6 4.5-.2 3-15.9 1.8-17.5 1H567l-.7-1.5-2.9-.4-2.6-1.3-2.3-3.7-.3-3.6 2-2.9-.5-1.4-2.1-2.2-.8-3.3-.6-6.8-2.1-2.5-7-4.5-3.8-5.4-3.4-1-2.2-2.8h-3.2l-2.9-3.3-.5-6.5.1-3.8 1.5-3.1-.8-3.2-2.5-2.8 1.8-5.4 5.2-3.8 1.6-1.9-.2-8.1.2-2.8 2.4-2.8z" stroke-width="0.5" stroke="#4772b8" fill="#edf1f8" />
  <path id="WAc" d="M74.5 67.7l-2.3-4.3-4.1-.7-.4-2.4-2.5-.6-2.9-.5-1.8 1-2.3-2.9.3-2.9 2.7-.3 1.6-4-2.6-1.1.2-3.7 4.4-.6-2.7-2.7-1.5-7.1.6-2.9v-7.9l-1.8-3.2 2.3-9.4 2.1.5 2.4 2.9 2.7 2.6 3.2 1.9 4.5 2.1 3.1.6 2.9 1.5 3.4 1 2.3-.2V22l1.3-1.1 2.1-1.3.3 1.1.3 1.8-2.3.5-.3 2.1 1.8 1.5 1.1 2.4.6 1.9 1.5-.2.2-1.3-1-1.3-.5-3.2.8-1.8-.6-1.5V19l1.8-3.6-1.1-2.6L91.9 8l.3-.8 1.4-.8L98 7.9l9.7 2.7 8.6 1.9 20 5.7 23 5.7 15 3.49-4.8 17.56-4.5 20.83-3.4 16.25-.4 9.18-12.9-3.72-15.3-3.47-14.5.32-1.1-1.53-5.7 2.09-3.9-.42-2.6-1.79-1.7.65-4.15-.25-1.72-1.32-5.16-1.82-1.18-.16-4.8-1.39-1.92 1.65-5.65-.25-4.61-3.35zm9.6-55.4l2-.2.5 1.4 1.5-1.6h2.3l.8 1.5-1.5 1.7.6.8-.7 2-1.4.4s-.9.1-.9-.2c0-.3 1.5-2.6 1.5-2.6l-1.7-.6-.3 1.5-.7.6-1.5-2.3z" stroke-width="0.5" stroke="#4772b8" fill="#edf1f8" />
  <path id="VTc" d="M832.7 111.3l2.4 6.5.8 5.3-1 3.9 2.5 4.4.9 2.3-.7 2.6 3.3 1.5 2.9 10.8v5.3l11.5-2.1-1-1.1.6-1.9.2-4.3-1-1.4.2-4.7.8-9.3v-8.5l-1.1-1.8v-1.6l2.8-1.1 3.5-4.4v-3.6l-1.9-2.7-.3-5.79-26.1 6.79z" stroke-width="0.5" stroke="#4772b8" fill="#edf1f8" />
  <path id="VAc" d="M834.7 265.2l-.2 2.8-2.9 3.8-.4 4.6.5 3.4-1.8 5-2.2 1.9-1.5-4.6.4-5.4 1.6-4.2.7-3.3-.1-1.7zm-60.3 44.6l-38.6 5.6-4.8-.1-2.2-.3-2.5 1.9-7.3.1-10.3 1.6-6.7.6 4.1-2.6 4.1-2.3v-2.1l5.7-7.3 4.1-3.7 2.2-2.5 3.6 4.3 3.8.9 2.7-1 2-1.5 2.4 1.2 4.6-1.3 1.7-4.4 2.4.7 3.2-2.3 1.6.4 2.8-3.2.2-2.7-.8-1.2 4.8-10.5 1.8-5.2.5-4.7.7-.2 1.1 1.7 1.5 1.2 3.9-.2 1.7-8.1 3-.6.8-2.6 2.8-2.2 1.1-2.1 1.8-4.3.1-4.6 3.6 1.4 6.6 3.1.3-5.2 3.4 1.2-.6 2.9 8.6 3.1 1.4 1.8-.8 3.3-1.3 1.3-.5 1.7.5 2.4 2 1.3 3.9 1.4 2.9 1 4.9.9 2.2 2.1 3.2.4.9 1.2-.4 4.7 1.4 1.1-.5 1.9 1.2.8-.2 1.4-2.7-.1.1 1.6 2.3 1.5.1 1.4 1.8 1.8.5 2.5-2.6 1.4 1.6 1.5 5.8-1.7 3.7 6.2z" stroke-width="0.5" stroke="#4772b8" fill="#edf1f8" />
  <path id="UTc" d="M228.4 305.9l24.6 3.6 1.9-13.7 7-50.5 2.3-22-32.2-3.5 2.2-13.1 1.8-10.6-34.7-6.1-12.5-2.5-10.6 52.9-5.4 30-3.3 15.4-1.7 9.2z" stroke-width="0.5" stroke="#4772b8" fill="#edf1f8" />
  <path id="TXc" d="M282.8 425.6l37 3.6 29.3 1.9 7.4-97.7 54.4 2.4-1.7 23.3-1 18 .2 2 4.4 4.1 2 1.1h1.8l.5-1.2.7.9 2.4.2 1.1-.6v-.2l1 .5-.4 3.7 4.5.7 2.4.9 4.2.7 2.6 1.8 2.8-1.9 2.7.6 2.2 3.1.8.1v2.1l3.3 1.1 2.5-2.1 1.5.5 2.1.1.6 2.1 5.2 2 2.3-.5 1.9-4h.1l1.1 1.9 4.6.9 3.4 1.3 3.2 1 2.4-1.2.7-2.3h3.6l2.1 1 3-2h.4l.5 1.4h4.7l1.9-1.8 1.3.4 1.7 2.1 3.3 1.9 3.4 1 2.5 1.4 2.7 2 3.1-1.2 2.1.8.7 20 .7 9.5.6 4.1 2.6 4.4.9 4.5 4.2 5.9.3 3.1.6.8-.7 7.7-2.9 4.8 1.3 2.6-.5 2.4-.8 7.2-1.3 3 .3 4.2-5.6 1.6-9.9 4.5-1 1.9-2.6 1.9-2.1 1.5-1.3.8-5.7 5.3-2.7 2.1-5.3 3.2-5.7 2.4-6.3 3.4-1.8 1.5-5.8 3.6-3.4.6-3.9 5.5-4 .3-1 1.9 2.3 1.9-1.5 5.5-1.3 4.5-1.1 3.9-.8 4.5.8 2.4 1.8 7 1 6.1 1.8 2.7-1 1.5-3.1 1.9-5.7-3.9-5.5-1.1-1.3.5-3.2-.6-4.2-3.1-5.2-1.1-7.6-3.4-2.1-3.9-1.3-6.5-3.2-1.9-.6-2.3.6-.6.3-3.4-1.3-.6-.6-1 1.3-4.4-1.6-2.3-3.2-1.3-3.4-4.4-3.6-6.6-4.2-2.6.2-1.9-5.3-12.3-.8-4.2-1.8-1.9-.2-1.5-6-5.3-2.6-3.1v-1.1l-2.6-2.1-6.8-1.1-7.4-.6-3.1-2.3-4.5 1.8-3.6 1.5-2.3 3.2-1 3.7-4.4 6.1-2.4 2.4-2.6-1-1.8-1.1-1.9-.6-3.9-2.3v-.6l-1.8-1.9-5.2-2.1-7.4-7.8-2.3-4.7v-8.1l-3.2-6.5-.5-2.7-1.6-1-1.1-2.1-5-2.1-1.3-1.6-7.1-7.9-1.3-3.2-4.7-2.3-1.5-4.4-2.6-2.9-1.7-.5zm174.4 141.7l-.6-7.1-2.7-7.2-.6-7 1.5-8.2 3.3-6.9 3.5-5.4 3.2-3.6.6.2-4.8 6.6-4.4 6.5-2 6.6-.3 5.2.9 6.1 2.6 7.2.5 5.2.2 1.5z" stroke-width="0.5" stroke="#4772b8" fill="#edf1f8" />
  <path id="TNc" d="M670.8 359.6l-13.1 1.2-23.3 2.2-37.6 2.7-11.8.4.9-.6.9-4.5-1.2-3.6 3.9-2.3.4-2.5 1.2-4.3 3-9.5.5-5.6.3-.2 12.3-.2 13.6-.8.1-3.9 3.5-.1 30.4-3.3 54-5.2 10.3-1.5 7.6-.2 2.4-1.9 1.3.3-.1 3.3-.4 1.6-2.4 2.2-1.6 3.6-2-.4-2.4.9-2.2 3.3-1.4-.2-.8-1.2-1.1.4-4.3 4-.8 3.1-4.2 2.2-4.3 3.6-3.8 1.5-4.4 2.8-.6 3.6-2.5.5-2 1.7-.2 4.8z" stroke-width="0.5" stroke="#4772b8" fill="#edf1f8" />
  <path id="SDc" d="M471 181.1l-.9 3.2.4 3 2.6 2-1.2 5.4-1.8 4.1 1.5 3.3.7 1.1-1.3.1-.7-1.6-.6-2-3.3-1.8-4.8-1.5-2.5-1.3-2.9.1-3.9.4-3.8 1.2-5.3-3.8-2.7-2.4-10.9.8-41.5-2.4-35.6-2.2L354 162l2.8-34 .4-5 56.9 3.9 56.9 1.7v2.7l-1.3 1.5-2 1.5-.1 2.2 1.1 2.2 4.1 3.4.5 2.7v35.9z" stroke-width="0.5" stroke="#4772b8" fill="#edf1f8" />
  <path id="SCc" d="M759 413.6l-2.1-1-1.9-5.6-2.5-2.3-2.5-.5-1.5-4.6-3-6.5-4.2-1.8-1.9-1.8-1.2-2.6-2.4-2-2.3-1.3-2.2-2.9-3.2-2.4-4.4-1.7-.4-1.4-2.3-2.8-.5-1.5-3.8-5.4-3.4.1-3.9-2.5-1.2-1.2-.2-1.4.6-1.6 2.7-1.3-.8-2 6.4-2.7 9.2-4.5 7.1-.9 16.4-.5 2.3 1.9 1.8 3.5 4.6-.8 12.6-1.5 2.7.8 12.5 7.4 10.1 8.3-5.3 5.4-2.6 6.1-.5 6.3-1.6.8-1.1 2.7-2.4.6-2.1 3.6-2.7 2.7-2.3 3.4-1.6.8-3.6 3.4-2.9.2 1 3.2-5 5.3-2.3 1.6z" stroke-width="0.5" stroke="#4772b8" fill="#edf1f8" />
  <path id="RIc" d="M873.6 175.7l-.8-4.4-1.6-6 5.7-1.5 1.5 1.3 3.4 4.3 2.8 4.4-2.8 1.4-1.3-.2-1.1 1.8-2.4 1.9-2.8 1.1z" stroke-width="0.5" stroke="#4772b8" fill="#edf1f8" />
  <path id="PAc" d="M736.6 192.2l1.3-.5 5.7-5.5.7 6.9 33.5-6.5 36.9-7.8 2.3 2.3 3.1.4 2 5.6 2.4 1.9 2.8.4.1.1-2.6 3.2v3.1l-1.9 3.1-.2 1.9 1.3 1.3-.2 1.9-2.4 1.1 1 3.4.2 1.1 2.8.3.9 2.5 5.9 3.9v.4l-3.1 3-1.5 2.2-1.7 2.8-2.7 1.2-1.4.3-2.1 1.3-1.6 1.4-22.4 4.3L757 241l-11.3 1.4-3.9.7-5.1-22.4-4.3-25.9z" stroke-width="0.5" stroke="#4772b8" fill="#edf1f8" />
  <path id="ORc" d="M67.44 158.9l28.24 7.2 27.52 6.5 17 3.7 8.8-35.1 1.2-4.4 2.4-5.5-.7-1.3-2.5.1-1.3-1.8.6-1.5.4-3.3 4.7-5.7 1.9-.9.9-.8.7-2.7.8-1.1 3.9-5.7 3.7-4 .2-3.26-3.4-2.49-1.2-4.55-13.1-3.83L132.9 85l-14.8.37-1.1-1.31-5.1 1.84-4.5-.48-2.4-1.58-1.3.54-4.68-.29-1.96-1.43-4.84-1.77-1.1-.07-4.45-1.27-1.76 1.52-6.26-.24-5.31-3.85.21-9.28-2.05-3.5-4.1-.6-.7-2.5-2.4-.5-5.8 2.1-2.3 6.5-3.2 10-3.2 6.5-5 14.1-6.5 13.6-8.1 12.6-1.9 2.9-.8 8.6-1.3 6 2.71 3.5z" stroke-width="0.5" stroke="#4772b8" fill="#edf1f8" />
  <path id="OKc" d="M411.9 334.9l-1.8 24.3-.9 18 .2 1.6 4 3.6 1.7.9h.9l.9-2.1 1.5 1.9 1.6.1.3-.2.2-1.1 2.8 1.4-.4 3.5 3.8.5 2.5 1 4.2.6 2.3 1.6 2.5-1.7 3.5.7 2.2 3.1 1.2.1v2.3l2.1.7 2.5-2.1 1.8.6 2.7.1.7 2.3 4.4 1.8 1.7-.3 1.9-4.2h1.3l1.1 2.1 4.2.8 3.4 1.3 3 .8 1.6-.7.7-2.7h4.5l1.9.9 2.7-1.9h1.4l.6 1.4h3.6l2-1.8 2.3.6 1.7 2.2 3 1.7 3.4.9 1.9 1.2-.3-37.6-1.4-10.9-.1-8.6-1.5-6.6-.6-6.8.1-4.3-12.6.3-46.3-.5-44.7-2.1-41.5-1.8-.4 10.7z" stroke-width="0.5" stroke="#4772b8" fill="#edf1f8" />
  <path id="OHc" d="M663.8 211.2l1.7 15.5 4.8 41.1 3.9-.2 2.3-.8 3.6 1.8 1.7 4.2 5.4.1 1.8 2h1.7l2.4-1.4 3.1.5 1.5 1.3 1.8-2 2.3-1.4 2.4-.4.6 2.7 1.6 1 2.6 2 .8.2 2-.1 1.2-.6v-2.1l1.7-1.5.1-4.8 1.1-4.2 1.9-1.3 1 .7 1 1.1.7.2.4-.4-.9-2.7v-2.2l1.1-1.4 2.5-3.6 1.3-1.5 2.2.5 2.1-1.5 3-3.3 2.2-3.7.2-5.4.5-5V230l-1.2-3.2 1.2-1.8 1.3-1.2-.6-2.8-4.3-25.6-6.2 3.7-3.9 2.3-3.4 3.7-4 3.9-3.2.8-2.9.5-5.5 2.6-2.1.2-3.4-3.1-5.2.6-2.6-1.5-2.2-1.3z" stroke-width="0.5" stroke="#4772b8" fill="#edf1f8" />
  <path id="NYc" d="M843.4 200l.5-2.7-.2-2.4-3-1.5-6.5-2-6-2.6-.6-.4-2.7-.3-2-1.5-2.1-5.9-3.3-.5-2.4-2.4-38.4 8.1-31.6 6-.5-6.5 1.6-1.2 1.3-1.1 1-1.6 1.8-1.1 1.9-1.8.5-1.6 2.1-2.7 1.1-1-.2-1-1.3-3.1-1.8-.2-1.9-6.1 2.9-1.8 4.4-1.5 4-1.3 3.2-.5 6.3-.2 1.9 1.3 1.6.2 2.1-1.3 2.6-1.1 5.2-.5 2.1-1.8 1.8-3.2 1.6-1.9h2.1l1.9-1.1.2-2.3-1.5-2.1-.3-1.5 1.1-2.1v-1.5h-1.8l-1.8-.8-.8-1.1-.2-2.6 5.8-5.5.6-.8 1.5-2.9 2.9-4.5 2.7-3.7 2.1-2.4 2.4-1.8 3.1-1.2 5.5-1.3 3.2.2 4.5-1.5 7.4-2.2.7 4.9 2.4 6.5.8 5-1 4.2 2.6 4.5.8 2-.9 3.2 3.7 1.7 2.7 10.2v5.8l-.6 10.9.8 5.4.7 3.6 1.5 7.3v8.1l-1.1 2.3 2.1 2.7.5.9-1.9 1.8.3 1.3 1.3-.3 1.5-1.3 2.3-2.6 1.1-.6 1.6.6 2.3.2 7.9-3.9 2.9-2.7 1.3-1.5 4.2 1.6-3.4 3.6-3.9 2.9-7.1 5.3-2.6 1-5.8 1.9-4 1.1-1-.4z" stroke-width="0.5" stroke="#4772b8" fill="#edf1f8" />
  <path id="NVc" d="M123.1 173.6l38.7 8.5 26 5.2-10.6 53.1-5.4 29.8-3.3 15.5-2.1 11.1-2.6 16.4-1.7 3.1-1.6-.1-1.2-2.6-2.8-.5-1.3-1.1-1.8.1-.9.8-1.8 1.3-.3 7.3-.3 1.5-.5 12.4-1.1 1.8-16.7-25.5-42.1-62.1-12.43-19 8.55-32.6 8.01-31.3z" stroke-width="0.5" stroke="#4772b8" fill="#edf1f8" />
  <path id="NMc" d="M270.2 429.4l-16.7-2.6-1.2 9.6-15.8-2 6-39.7 7-53.2 4.4-30.9 34 3.9 37.4 4.4 32 2.8-.3 10.8-1.4-.1-7.4 97.7-28.4-1.8-38.1-3.7.7 6.3z" stroke-width="0.5" stroke="#4772b8" fill="#edf1f8" />
  <path id="NJc" d="M823.7 228.3l.1-1.5 2.7-1.3 1.7-2.8 1.7-2.4 3.3-3.2v-1.2l-6.1-4.1-1-2.7-2.7-.3-.1-.9-.7-2.2 2.2-1.1.2-2.9-1.3-1.3.2-1.2 1.9-3.1V193l2.5-3.1 5.6 2.5 6.4 1.9 2.5 1.2.1 1.8-.5 2.7.4 4.5-2.1 1.9-1.1 1 .5.5 2.7-.3 1.1-.8 1.6 3.4.2 9.4.6 1.1-1.1 5.5-3.1 6.5-2.7 4-.8 4.8-2.1 2.4h-.8l-.3-2.7.8-1-.2-1.5-4-.6-4.8-2.3-3.2-2.9-1-2z" stroke-width="0.5" stroke="#4772b8" fill="#edf1f8" />
  <path id="NHc" d="M881.7 141.3l1.1-3.2-2.7-1.2-.5-3.1-4.1-1.1-.3-3-11.7-37.48-.7.08-.6 1.6-.6-.5-1-1-1.5 1.9-.2 2.29.5 8.41 1.9 2.8v4.3l-3.9 4.8-2.4.9v.7l1.1 1.9v8.6l-.8 9.2-.2 4.7 1 1.4-.2 4.7-.5 1.5 1 1.1 5.1-1.2 13.8-3.5 1.7-2.9 4-1.9z" stroke-width="0.5" stroke="#4772b8" fill="#edf1f8" />
  <path id="NEc" d="M470.3 204.3l-1-2.3-.5-1.6-2.9-1.6-4.8-1.5-2.2-1.2-2.6.1-3.7.4-4.2 1.2-6-4.1-2.2-2-10.7.6-41.5-2.4-35.6-2.2-4.3 43.7 33.1 3.3-1.4 21.1 21.7 1 40.6 1.2 43.8.6h4.5l-2.2-3-2.6-3.9.1-2.3-1.4-2.7-1.9-5.2-.4-6.7-1.4-4.1-.5-5-2.3-3.7-1-4.7-2.8-7.9-1-5.3z" stroke-width="0.5" stroke="#4772b8" fill="#edf1f8" />
  <path id="NDc" d="M471 126.4l-.4-6.2-1.8-7.3-1.8-13.61-.5-9.7-1.9-3.18-1.6-5.32V70.68l.6-3.85-1.8-5.54-28.6-.59-18.6-.6-26.5-1.3-25.2-2.16-.9 14.42-4.7 50.94 56.8 3.9 56.9 1.7z" stroke-width="0.5" stroke="#4772b8" fill="#edf1f8" />
  <path id="NCc" d="M786.7 357.7L774 350l-3.1-.8-16.6 2.1-1.6-3-2.8-2.2-16.7.5-7.4.9-9.2 4.5-6.8 2.7-6.5 1.2-13.4 1.4.1-4.1 1.7-1.3 2.7-.7.7-3.8 3.9-2.5 3.9-1.5 4.5-3.7 4.4-2.3.7-3.2 4.1-3.8.7 1 2.5.2 2.4-3.6 1.7-.4 2.6.3 1.8-4 2.5-2.4.5-1.8.1-3.5 4.4.1 38.5-5.6 57.5-12.3 2 4.8 3.6 6.5 2.4 2.4.6 2.3-2.4.2.8.6-.3 4.2-2.6 1.3-.6 2.1-1.3 2.9-3.7 1.6-2.4-.3-1.5-.2-1.6-1.3.3 1.3v1h1.9l.8 1.3-1.9 6.3h4.2l.6 1.6 2.3-2.3 1.3-.5-1.9 3.6-3.1 4.8H828l-1.1-.5-2.7.6-5.2 2.4-6.5 5.3-3.4 4.7-1.9 6.5-.5 2.4-4.7.5-5.1 1.5zm49.3-26.2l2.6-2.5 3.2-2.6 1.5-.6.2-2-.6-6.1-1.5-2.3-.6-1.9.7-.2 2.7 5.5.4 4.4-.2 3.4-3.4 1.5-2.8 2.4-1.1 1.2z" stroke-width="0.5" stroke="#4772b8" fill="#edf1f8" />
  <path id="MTc" d="M361.1 70.77l-5.3 57.13-1.3 15.2-59.1-6.6-49-7.1-1.4 11.2-1.9-1.7-.4-2.5-1.3-1.9-3.3 1.5-.7 2.5-2.3.3-3.8-1.6-4.1.1-2.4.7-3.2-1.5-3 .2-2.1 1.9-.9-.6-.7-3.4.7-3.2-2.7-3.2-3.3-2.5-2.5-12.6-.1-5.3-1.6-.8-.6 1-4.5 3.2-1.2-.1-2.3-2.8-.2-2.8 7-17.15-.6-2.67-3.5-1.12-.4-.91-2.7-3.5-4.6-10.41-3.2-1.58-1.8-4.26 1.3-4.63-3.2-7.57 4.4-21.29L222 37.3l18.4 3.4 32.3 5.3 29.3 4 29.2 3.5 30.8 3.07z" stroke-width="0.5" stroke="#4772b8" fill="#edf1f8" />
  <path id="MSc" d="M604.3 472.5l2.6-4.2 1.8.8 6.8-1.9 2.1.3 1.5.8h5.2l.4-1.6-1.7-14.8-2.8-19 1-45.1-.2-16.7.2-6.3-4.8.3-19.6 1.6-13 .4-.2 3.2-2.8 1.3-2.6 5.1.5 1.6.1 2.4-2.9 1.1-3.5 5.1.8 2.3-3 2.5-1 5.7-.6 1.9 1.6 2.5-1.5 1.4 1.5 2.8.3 4.2-1.2 2.5-.2.9.4 5 2 4.5-.1 1.7 2.3 2-.7 3.1-.9.3.6 1.9-8.6 15-.8 8.2.5 1.5 24.2-.7 8.2-.7 1.9-.3.6 1.4-1 7.1 3.3 3.3 2.2 6.4z" stroke-width="0.5" stroke="#4772b8" fill="#edf1f8" />
  <path id="MOc" d="M593.1 338.7l.5-5.9 4.2-3.4 1.9-1v-2.9l.7-1.6-1.1-1.6-2.4.3-2.1-2.5-1.7-4.5.9-2.6-2-3.2-1.8-4.6-4.6-.7-6.8-5.6-2.2-4.2.8-3.3 2.2-6 .6-3-1.9-1-6.9-.6-1.1-1.9v-4.1l-5.3-3.5-7.2-7.8-2.3-7.3-.5-4.2.7-2.4-2.6-3.1-1.2-2.4-7.7.8-10 .6-48.8 1.2 1.3 2.6-.1 2.2 2.3 3.6 3 3.9 3.1 3 2.6.2 1.4 1.1v2.9l-1.8 1.6-.5 2.3 2.1 3.2 2.4 3 2.6 2.1 1.3 11.6-.8 40 .5 5.7 23.7-.2 23.3-.7 32.5-1.3 2.2 3.7-.8 3.1-3.1 2.5-.5 1.8 5.2.5 4.1-1.1z" stroke-width="0.5" stroke="#4772b8" fill="#edf1f8" />
  <path id="MNc" d="M464.6 66.79l-.6 3.91v10.27l1.6 5.03 1.9 3.32.5 9.93 1.8 13.45 1.8 7.3.4 6.4v5.3l-1.6 1.8-1.8 1.3v1.5l.9 1.7 4.1 3.5.7 3.2v35.9l60.3-.6 21.2-.7-.5-6-1.8-2.1-7.2-4.6-3.6-5.3-3.4-.9-2-2.8h-3.2l-3.5-3.8-.5-7 .1-3.9 1.5-3-.7-2.7-2.8-3.1 2.2-6.1 5.4-4 1.2-1.4-.2-8 .2-3 2.6-3 3.8-2.9 1.3-.2 4.5-5 1.8-.8 2.3-3.9 2.4-3.6 3.1-2.6 4.8-2 9.2-4.1 3.9-1.8.6-2.3-4.4.4-.7 1.1h-.6l-1.8-3.1-8.9.3-1 .8h-1l-.5-1.3-.8-1.8-2.6.5-3.2 3.2-1.6.8h-3.1l-2.6-1v-2.1l-1.3-.2-.5.5-2.6-1.3-.5-2.9-1.5.5-.5 1-2.4-.5-5.3-2.4-3.9-2.6h-2.9l-1.3-1-2.3.6-1.1 1.1-.3 1.3h-4.8v-2.1l-6.3-.3-.3-1.5h-4.8l-1.6-1.6-1.5-6.1-.8-5.5-1.9-.8-2.3-.5-.6.2-.3 8.2-30.1-.03z" stroke-width="0.5" stroke="#4772b8" fill="#edf1f8" />
  <path id="MIc" d="M644.5 211l19.1-1.9.2 1.1 9.9-1.5 12-1.7.1-.6.2-1.5 2.1-3.7 2-1.7-.2-5.1 1.6-1.6 1.1-.3.2-3.6 1.5-3 1.1.6.2.6.8.2 1.9-1-.4-9.1-3.2-8.2-2.3-9.1-2.4-3.2-2.6-1.8-1.6 1.1-3.9 1.8-1.9 5-2.7 3.7-1.1.6-1.5-.6s-2.6-1.5-2.4-2.1c.2-.6.5-5 .5-5l3.4-1.3.8-3.4.6-2.6 2.4-1.6-.3-10-1.6-2.3-1.3-.8-.8-2.1.8-.8 1.6.3.2-1.6-2.6-2.2-1.3-2.6h-2.6l-4.5-1.5-5.5-3.4h-2.7l-.6.6-1-.5-3.1-2.3-2.9 1.8-2.9 2.3.3 3.6 1 .3 2.1.5.5.8-2.6.8-2.6.3-1.5 1.8-.3 2.1.3 1.6.3 5.5-3.6 2.1-.6-.2v-4.2l1.3-2.4.6-2.4-.8-.8-1.9.8-1 4.2-2.7 1.1-1.8 1.9-.2 1 .6.8-.6 2.6-2.3.5v1.1l.8 2.4-1.1 6.1-1.6 4 .6 4.7.5 1.1-.8 2.4-.3.8-.3 2.7 3.6 6 2.9 6.5 1.5 4.8-.8 4.7-1 6-2.4 5.2-.3 2.7-3.2 3.1zm-33.3-72.4l-1.3-1.1-1.8-10.4-3.7-1.3-1.7-2.3-12.6-2.8-2.8-1.1-8.1-2.2-7.8-1-3.9-5.3.7-.5 2.7-.8 3.6-2.3v-1l.6-.6 6-1 2.4-1.9 4.4-2.1.2-1.3 1.9-2.9 1.8-.8 1.3-1.8 2.3-2.3 4.4-2.4 4.7-.5 1.1 1.1-.3 1-3.7 1-1.5 3.1-2.3.8-.5 2.4-2.4 3.2-.3 2.6.8.5 1-1.1 3.6-2.9 1.3 1.3h2.3l3.2 1 1.5 1.1 1.5 3.1 2.7 2.7 3.9-.2 1.5-1 1.6 1.3 1.6.5 1.3-.8h1.1l1.6-1 4-3.6 3.4-1.1 6.6-.3 4.5-1.9 2.6-1.3 1.5.2v5.7l.5.3 2.9.8 1.9-.5 6.1-1.6 1.1-1.1 1.5.5v7l3.2 3.1 1.3.6 1.3 1-1.3.3-.8-.3-3.7-.5-2.1.6-2.3-.2-3.2 1.5h-1.8l-5.8-1.3-5.2.2-1.9 2.6-7 .6-2.4.8-1.1 3.1-1.3 1.1-.5-.2-1.5-1.6-4.5 2.4h-.6l-1.1-1.6-.8.2-1.9 4.4-1 4-3.2 6.9zm-29.6-56.5l1.8-2.1 2.2-.8 5.4-3.9 2.3-.6.5.5-5.1 5.1-3.3 1.9-2.1.9zm86.2 32.1l.6 2.5 3.2.2 1.3-1.2s-.1-1.5-.4-1.6c-.3-.2-1.6-1.9-1.6-1.9l-2.2.2-1.6.2-.3 1.1z" stroke-width="0.5" stroke="#4772b8" fill="#edf1f8" />
  <path id="MEc" d="M865.8 91.9l1.5.4v-2.6l.8-5.5 2.6-4.7 1.5-4-1.9-2.4v-6l.8-1 .8-2.7-.2-1.5-.2-4.8 1.8-4.8 2.9-8.9 2.1-4.2h1.3l1.3.2v1.1l1.3 2.3 2.7.6.8-.8v-1l4-2.9 1.8-1.8 1.5.2 6 2.4 1.9 1 9.1 29.9h6l.8 1.9.2 4.8 2.9 2.3h.8l.2-.5-.5-1.1 2.8-.5 1.9 2.1 2.3 3.7V85l-2.1 4.7-1.9.6-3.4 3.1-4.8 5.5h-1.3c-.6 0-1-2.1-1-2.1l-1.8.2-1 1.5-2.4 1.5-1 1.5 1.6 1.5-.5.6-.5 2.7-1.9-.2v-1.6l-.3-1.3-1.5.3-1.8-3.2-2.1 1.3 1.3 1.5.3 1.1-.8 1.3.3 3.1.2 1.6-1.6 2.6-2.9.5-.3 2.9-5.3 3.1-1.3.5-1.6-1.5-3.1 3.6 1 3.2-1.5 1.3-.2 4.4-1.1 6.3-2.2-.9-.5-3.1-4-1.1-.2-2.5-11.7-37.43zm36.5 15.6l1.5-1.5 1.4 1.1.6 2.4-1.7.9zm6.7-5.9l1.8 1.9s1.3.1 1.3-.2c0-.3.2-2 .2-2l.9-.8-.8-1.8-2 .7z" stroke-width="0.5" stroke="#4772b8" fill="#edf1f8" />
  <path id="MDc" d="M834.8 264.1l1.7-3.8.5-4.8-6.3 1.1-5.8.3-3.8-16.8-2.3-5.5-1.5-4.6-22.2 4.3-37.6 7.6 2 10.4 4.8-4.9 2.5-.7 1.4-1.5 1.8-2.7 1.6.7 2.6-.2 2.6-2.1 2-1.5 2.1-.6 1.5 1.1 2.7 1.4 1.9 1.8 1.3 1.4 4.8 1.6-.6 2.9 5.8 2.1 2.1-2.6 3.7 2.5-2.1 3.3-.7 3.3-1.8 2.6v2.1l.3.8 2 1.3 3.4 1.1 4.3-.1 3.1 1 2.1.3 1-2.1-1.5-2.1v-1.8l-2.4-2.1-2.1-5.5 1.3-5.3-.2-2.1-1.3-1.3s1.5-1.6 1.5-2.3c0-.6.5-2.1.5-2.1l1.9-1.3 1.9-1.6.5 1-1.5 1.6-1.3 3.7.3 1.1 1.8.3.5 5.5-2.1 1 .3 3.6.5-.2 1.1-1.9 1.6 1.8-1.6 1.3-.3 3.4 2.6 3.4 3.9.5 1.6-.8 3.2 4.2 1 .4zm-14.5.2l1.1 2.5.2 1.8 1.1 1.9s.9-.9.9-1.2c0-.3-.7-3.1-.7-3.1l-.7-2.3z" stroke-width="0.5" stroke="#4772b8" fill="#edf1f8" />
  <path id="MAc" d="M887.5 172.5l-.5-2.3.8-1.5 2.9-1.5.8 3.1-.5 1.8-2.4 1.5v1l1.9-1.5 3.9-4.5 3.9-1.9 4.2-1.5-.3-2.4-1-2.9-1.9-2.4-1.8-.8-2.1.2-.5.5 1 1.3 1.5-.8 2.1 1.6.8 2.7-1.8 1.8-2.3 1-3.6-.5-3.9-6-2.3-2.6h-1.8l-1.1.8-1.9-2.6.3-1.5 2.4-5.2-2.9-4.4-3.7 1.8-1.8 2.9-18.3 4.7-13.8 2.5-.6 10.6.7 4.9 22-4.8 11.2-2.8 2 1.6 3.4 4.3 2.9 4.7zm12.5 1.4l2.2-.7.5-1.7 1 .1 1 2.3-1.3.5-3.9.1zm-9.4.8l2.3-2.6h1.6l1.8 1.5-2.4 1-2.2 1z" stroke-width="0.5" stroke="#4772b8" fill="#edf1f8" />
  <path id="LAc" d="M526.9 485.9l8.1-.3 10.3 3.6 6.5 1.1 3.7-1.5 3.2 1.1 3.2 1 .8-2.1-3.2-1.1-2.6.5-2.7-1.6.8-1.5 3.1-1 1.8 1.5 1.8-1 3.2.6 1.5 2.4.3 2.3 4.5.3 1.8 1.8-.8 1.6-1.3.8 1.6 1.6 8.4 3.6 3.6-1.3 1-2.4 2.6-.6 1.8-1.5 1.3 1 .8 2.9-2.3.8.6.6 3.4-1.3 2.3-3.4.8-.5-2.1-.3.8-1.6-.2-1.5 2.1-.5 1.1-1.3.6.8.6 3.1 4.2.6 4 1.9 1 1.5h2.9l1.1 1 2.3-3.1V493h-1.3l-3.4-2.7-5.8-.8-3.2-2.3 1.1-2.7 2.3.3.2-.6-1.8-1v-.5h3.2l1.8-3.1-1.3-1.9-.3-2.7-1.5.2-1.9 2.1-.6 2.6-3.1-.6-1-1.8 1.8-1.9 1.9-1.7-2.2-6.5-3.4-3.4 1-7.3-.2-.5-1.3.2-33.1 1.4-.8-2.4.8-8.5 8.6-14.8-.9-2.6 1.4-.4.4-2-2.2-2 .1-1.9-2-4.5-.4-5.1.1-.7-26.4.8-25.2.1.4 9.7.7 9.5.5 3.7 2.6 4.5.9 4.4 4.3 6 .3 3.1.6.8-.7 8.3-2.8 4.6 1.2 2.4-.5 2.6-.8 7.3-1.3 3 .2 3.7z" stroke-width="0.5" stroke="#4772b8" fill="#edf1f8" />
  <path id="KYc" d="M607.2 331.8l12.6-.7.1-4.1h4.3l30.4-3.2 45.1-4.3 5.6-3.6 3.9-2.1.1-1.9 6-7.8 4.1-3.6 2.1-2.4-3.3-2-2.5-2.7-3-3.8-.5-2.2-2.6-1.4-.9-1.9-.2-6.1-2.6-2-1.9-1.1-.5-2.3-1.3.2-2 1.2-2.5 2.7-1.9-1.7-2.5-.5-2.4 1.4h-2.3l-1.8-2-5.6-.1-1.8-4.5-2.9-1.5-2.1.8-4.2.2-.5 2.1 1.2 1.5.3 2.1-2.8 2-3.8 1.8-2.6.4-.5 4.5-4.9 3.6-2.6 3.7.2 2.2-.9 2.3-4.5-.1-1.3-1.3-3.9 2.2.2 3.3-2.4.6-.8-1.4-1.7-1.2-2.7 1.1-1.8 3.5-2.2-1-1.4-1.6-3.7.4-5.6 1-2.8 1.3-1.2 3.4-1 1 1.5 3.7-4.2 1.4-1.9 1.4-.4 2.2 1.2 2.4v2.2l-1.6.4-6.1-2.5-2.3.9-2 1.4-.8 1.8 1.7 2.4-.9 1.8-.1 3.3-2.4 1.3-2.1 1.7z" stroke-width="0.5" stroke="#4772b8" fill="#edf1f8" />
  <path id="KSc" d="M485.9 259.5l-43.8-.6-40.6-1.2-21.7-.9-4.3 64.8 24.3 1 44.7 2.1 46.3.6 12.6-.3.7-35-1.2-11.1-2.5-2-2.4-3-2.3-3.6.6-3 1.7-1.4v-2.1l-.8-.7-2.6-.2-3.5-3.4z" stroke-width="0.5" stroke="#4772b8" fill="#edf1f8" />
  <path id="INc" d="M622.9 216.1l1.5 1 1.1-.3 2.1-1.9 2.5-1.8 14.3-1.1 18.4-1.8 1.6 15.5 4.9 42.6-.6 2.9 1.3 1.6.2 1.3-2.3 1.6-3.6 1.7-3.2.4-.5 4.8-4.7 3.6-2.9 4 .2 2.4-.5 1.4h-3.5l-1.4-1.7-5.2 3 .2 3.1-.9.2-.5-.9-2.4-1.7-3.6 1.5-1.4 2.9-1.2-.6-1.6-1.8-4.4.5-5.7 1-2.5 1.3v-2.6l.4-4.7 2.3-2.9 1.8-3.9 2.7-4.2-.5-5.8-1.8-3.1-.3-3.2.8-5.3-.7-7.1-.9-12.6-2.5-30.1z" stroke-width="0.5" stroke="#4772b8" fill="#edf1f8" />
  <path id="ILc" d="M618.7 214.3l-.8-2.6-1.3-3.7-1.6-1.8-1.5-2.6-.4-5.5-15.9 1.8-17.4 1h-12.3l.2 2.1 2.2.9 1.1 1.4.4 1.4 3.9 3.4.7 2.4-.7 3.3-1.7 3.7-.8 2.7-2.4 1.9-1.9.6-5.2 1.3-1.3 4.1.6 1.1 1.9 1.8-.2 4.3-2.1 1.6-.5 1.3v2.8l-1.8.6-1.4 1.2-.4 1.2.4 2-1.6 1.3-.9 2.8.3 3.9 2.3 7 7 7.6 5.7 3.7v4.4l.7 1.2 6.6.6 2.7 1.4-.7 3.5-2.2 6.2-.8 3 2 3.7 6.4 5.3 4.8.8 2.2 5.1 2 3.4-.9 2.8 1.5 3.8 1.7 2.1 1.6-.3 1-2.2 2.4-1.7 2.8-1 6.1 2.5.5-.2v-1.1l-1.2-2.7.4-2.8 2.4-1.6 3.4-1.2-.5-1.3-.8-2 1.2-1.3 1-2.7v-4l.4-4.9 2.5-3 1.8-3.8 2.5-4-.5-5.3-1.8-3.2-.3-3.3.8-5.3-.7-7.2-1.1-15.8-1.4-15.3-.9-11.7z" stroke-width="0.5" stroke="#4772b8" fill="#edf1f8" />
  <path id="IDc" d="M175.3 27.63l-4.8 17.41L166 65.9l-3.4 16.22-.4 9.67 1.2 4.44 3.5 2.66-.2 3.91-3.9 4.4-4.5 6.6-.9 2.9-1.2 1.1-1.8.8-4.3 5.3-.4 3.1-.4 1.1.6 1 2.6-.1 1.1 2.3-2.4 5.8-1.2 4.2-8.8 35.3 20.7 4.5 39.5 7.9 34.8 6.1 4.9-29.2 3.8-24.1-2.7-2.4-.4-2.6-.8-1.1-2.1 1-.7 2.6-3.2.5-3.9-1.6-3.8.1-2.5.7-3.4-1.5-2.4.2-2.4 2-2-1.1-.7-4 .7-2.9-2.5-2.9-3.3-2.6-2.7-13.1-.1-4.7-.3-.1-.2.4-5.1 3.5-1.7-.2-2.9-3.4-.2-3.1 7-17.13-.4-1.94-3.4-1.15-.6-1.18-2.6-3.46-4.6-10.23-3.2-1.53-2-4.95 1.3-4.63-3.2-7.58 4.4-21.52z" stroke-width="0.5" stroke="#4772b8" fill="#edf1f8" />
  <path id="IAc" d="M556.8 183.6l2.1 2.1.3.7-2 3 .3 4 2.6 4.1 3.1 1.6 2.4.3.9 1.8.2 2.4 2.5 1 .9 1.1.5 1.6 3.8 3.3.6 1.9-.7 3-1.7 3.7-.6 2.4-2.1 1.6-1.6.5-5.7 1.5-1.6 4.8.8 1.8 1.7 1.5-.2 3.5-1.9 1.4-.7 1.8v2.4l-1.4.4-1.7 1.4-.5 1.7.4 1.7-1.3 1-2.3-2.7-1.4-2.8-8.3.8-10 .6-49.2 1.2-1.6-4.3-.4-6.7-1.4-4.2-.7-5.2-2.2-3.7-1-4.6-2.7-7.8-1.1-5.6-1.4-1.9-1.3-2.9 1.7-3.8 1.2-6.1-2.7-2.2-.3-2.4.7-2.4 1.8-.3 61.1-.6 21.2-.7z" stroke-width="0.5" stroke="#4772b8" fill="#edf1f8" />
  <path id="GAc" d="M750.2 444.2l-5.6-.7-1.4 1.6 1.6 4.7-.3 3.9-2.2-.6-.2-3h-5.2l-5.3.7-32.3 1.9-7.7-.3-1.4-1.2-2.5-4.3-.8-3.3-1.6-.9-.5-.5.9-2.2-.4-5.5-1.6-4.5.8-4.9 1.7-4.8-.2-2.5-1.9-.7-.4-3.2-2.8-3.5-1.9-6.2-1.5-7-1.7-4.8-3.8-16-3.5-8-.8-5.3.1-2.3 3.3-.3 13.6-1.6 18.6-2 6.3-1.1.5 1.4-2.2.9-.9 2.2.4 2 1.4 1.6 4.3 2.7 3.2-.1 3.2 4.7.6 1.6 2.3 2.8.5 1.7 4.7 1.8 3 2.2 2.3 3 2.3 1.3 2 1.8 1.4 2.7 2.1 1.9 4.1 1.8 2.7 6 1.7 5.1 2.8.7 2.1 1.9 2 5.7 2.9 1.6 1.7-.8.4 1.2-3.3 6.2.5 2.6-1.5 4.2-2.3 10 .8 6.3z" stroke-width="0.5" stroke="#4772b8" fill="#edf1f8" />
  <path id="FLc" d="M750.2 445.2l-5.2-.7-.7.8 1.5 4.4-.4 5.2-4.1-1-.2-2.8H737l-5.3.7-32.4 1.9-8.2-.3-1.7-1.7-2.5-4.2H681l-6.6.5-35.4 4.2-.3 2.8 1.6 1.6 2.9 2 .3 8.4 3.3-.6 6-2.1 6-.5 4.4-.6 7.6 1.8 8.1 3.9 1.6 1.5 2.9 1.1 1.6 1.9.3 2.7 3.2-1.3h3.9l3.6-1.9 3.7-3.6 3.1.2.5-1.1-.8-1 .2-1.9 4-.8h2.6l2.9 1.5 4.2 1.5 2.4 3.7 2.7 1 1.1 3.4 3.4 1.6 1.6 2.6 1.9.6 5.2 1.3 1.3 3.1 3 3.7v9.5l-1.5 4.7.3 2.7 1.3 4.8 1.8 4 .8-.5 1.5-4.5-2.6-1-.3-.6 1.6-.6 4.5 1 .2 1.6-3.2 5.5-2.1 2.4 3.6 3.7 2.6 3.1 2.9 5.3 2.9 3.9 2.1 5 1.8.3 1.6-2.1 1.8 1.1 2.6 4 .6 3.6 3.1 4.4.8-1.3 3.9.3 3.6 2.3 3.4 5.2.8 3.4.3 2.9 1.1 1 1.3.5 2.4-1 1.5-1.6 3.9-.2 3.1-1.5 2.7-3.2-.5-1.9-.3-2.4.6-1.9-.3-1.9 2.4-1.3.3-3.4-.6-1.8-.5-12-1.3-7.6-4.5-8.2-3.6-5.8-2.6-5.3-2.9-2.9-2.9-7.4.7-1.4 1.1-1.3-1.6-2.9-4-3.7-4.8-5.5-3.7-6.3-5.3-9.4-3.7-9.7-2.3-7.3zm17.7 132.7l2.4-.6 1.3-.2 1.5-2.3 2.3-1.6 1.3.5 1.7.3.4 1.1-3.5 1.2-4.2 1.5-2.3 1.2zm13.5-5l1.2 1.1 2.7-2.1 5.3-4.2 3.7-3.9 2.5-6.6 1-1.7.2-3.4-.7.5-1 2.8-1.5 4.6-3.2 5.3-4.4 4.2-3.4 1.9z" stroke-width="0.5" stroke="#4772b8" fill="#edf1f8" />
  <path id="DEc" d="M834.4 247.2l-1 .5-3.6-2.4-1.8-4.7-1.9-3.6-2.3-1-2.1-3.6.5-2 .5-2.3.1-1.1-.6.1-1.7 1-2 1.7-.2.3 1.4 4.1 2.3 5.6 3.7 16.1 5-.3 6-1.1z" stroke-width="0.5" stroke="#4772b8" fill="#edf1f8" />
  <path id="CTc" d="M852 190.9l3.6-3.2 1.9-2.1.8.6 2.7-1.5 5.2-1.1 7-3.5-.6-4.2-.8-4.4-1.6-6-4.3 1.1-21.8 4.7.6 3.1 1.5 7.3v8.3l-.9 2.1 1.7 2.2z" stroke-width="0.5" stroke="#4772b8" fill="#edf1f8" />
  <path id="COc" d="M380.2 235.5l-36-3.5-79.1-8.6-2.2 22.1-7 50.4-1.9 13.7 34 3.9 37.5 4.4 34.7 3 14.3.6z" stroke-width="0.5" stroke="#4772b8" fill="#edf1f8" />
  <path id="CAc" d="M122.7 385.9l-19.7-2.7-10-1.5-.5-1.8v-9.4l-.3-3.2-2.6-4.2-.8-2.3-3.9-4.2-2.9-4.7-2.7-.2-3.2-.8-.3-1 1.5-.6-.6-3.2-1.5-2.1-4.8-.8-3.9-2.1-1.1-2.3-2.6-4.8-2.9-3.1H57l-3.9-2.1-4.5-1.8-4.2-.5-2.4-2.7.5-1.9 1.8-7.1.8-1.9v-2.4l-1.6-1-.5-2.9-1.5-2.6-3.4-5.8-1.3-3.1-1.5-4.7-1.6-5.3-3.2-4.4-.5-2.9.8-3.9h1.1l2.1-1.6 1.1-3.6-1-2.7-2.7-.5-1.9-2.6-2.1-3.7-.2-8.2.6-1.9.6-2.3.5-2.4-5.7-6.3V236l.3-.5.3-3.2-1.3-4-2.3-4.8-2.7-4.5-1.8-3.9 1-3.7.6-5.8 1.8-3.1.3-6.5-1.1-3.6-1.6-4.2L14 184l.8-3.2 1.5-4.2 1.8-.8.3-1.1 3.1-2.6 5.2-11.8.2-7.4 1.69-4.9 38.69 11.8 25.6 6.6-8 31.3-8.67 33.1L88.84 250 131 312.3l17.1 26.1-.4 3.1 2.8 5.2 1.1 5.4 1 1.5.7.6-.2 1.4-1.4 1-3.4 1.6-1.9 2.1-1.7 3.9-.5 4.7-2.6 2.5-2.3 1.1-.1 6.2-.6 1.9 1 1.7 3 .3-.4 1.6-1.4 2-3.9.6zM48.8 337l1.3 1.5-.2 1.3-3.2-.1-.6-1.2-.6-1.5zm1.9 0l1.2-.6 3.6 2.1 3.1 1.2-.9.6-4.5-.2-1.6-1.6zm20.7 19.8l1.8 2.3.8 1 1.5.6.6-1.5-1-1.8-2.7-2-1.1.2v1.2zm-1.4 8.7l1.8 3.2 1.2 1.9-1.5.2-1.3-1.2s-.7-1.5-.7-1.9v-2.2z" stroke-width="0.5" stroke="#4772b8" fill="#edf1f8" />
  <path id="AZc" d="M135.1 389.7l-.3 1.5.5 1 18.9 10.7 12.1 7.6 14.7 8.6 16.8 10 12.3 2.4 25.4 2.7 6-39.6 7-53.1 4.4-31-24.6-3.6-60.7-11-.2 1.1-2.6 16.5-2.1 3.8-2.8-.2-1.2-2.6-2.6-.4-1.2-1.1-1.1.1-2.1 1.7-.3 6.8-.3 1.5-.5 12.5-1.5 2.4-.4 3.3 2.8 5 1.1 5.5.7 1.1 1.1.9-.4 2.4-1.7 1.2-3.4 1.6-1.6 1.8-1.6 3.6-.5 4.9-3 2.9-1.9.9-.1 5.8-.6 1.6.5.8 3.9.4-.9 3-1.7 2.4-3.7.4z" stroke-width="0.5" stroke="#4772b8" fill="#edf1f8" />
  <path id="ARc" d="M587.3 346.1l-6.4-.7.9-3.1 3.1-2.6.6-2.3-1.8-2.9-31.9 1.2-23.3.7-23.6.3 1.5 6.9.1 8.5 1.4 10.9.3 38.2 2.1 1.6 3-1.2 2.9 1.2.4 10.1 25.2-.2 26.8-.8.9-1.9-.3-3.8-1.7-3.1 1.5-1.4-1.4-2.2.7-2.4 1.1-5.9 2.7-2.3-.8-2.2 4-5.6 2.5-1.1-.1-1.7-.5-1.7 2.9-5.8 2.5-1.1.2-3.3 2.1-1.4.9-4.1-1.4-4 4.2-2.4.3-2.1 1.2-4.2.9-3.1z" stroke-width="0.5" stroke="#4772b8" fill="#edf1f8" />
  <path id="ALc" d="M628.5 466.4l.6.2 1.3-2.7 1.5-4.4 2.3.6 3.1 6v1l-2.7 1.9 2.7.3 5.2-2.5-.3-7.6-2.5-1.8-2-2 .4-4 10.5-1.5 25.7-2.9 6.7-.6 5.6.1-.5-2.2-1.5-.8-.9-1.1 1-2.6-.4-5.2-1.6-4.5.8-5.1 1.7-4.8-.2-1.7-1.8-.7-.5-3.6-2.7-3.4-2-6.5-1.4-6.7-1.8-5-3.8-16-3.5-7.9-.8-5.6.1-2.2-9 .8-23.4 2.2-12.2.8-.2 6.4.2 16.7-.7 31-.3 14.1 2.8 18.8 1.6 14.7z" stroke-width="0.5" stroke="#4772b8" fill="#edf1f8" />
  <path id="HIc" d="M233.1 519.3l1.9-3.6 2.3-.3.3.8-2.1 3.1zm10.2-3.7l6.1 2.6 2.1-.3 1.6-3.9-.6-3.4-4.2-.5-4 1.8zm30.7 10l3.7 5.5 2.4-.3 1.1-.5 1.5 1.3 3.7-.2 1-1.5-2.9-1.8-1.9-3.7-2.1-3.6-5.8 2.9zm20.2 8.9l1.3-1.9 4.7 1 .6-.5 6.1.6-.3 1.3-2.6 1.5-4.4-.3zm5.3 5.2l1.9 3.9 3.1-1.1.3-1.6-1.6-2.1-3.7-.3zm7-1.2l2.3-2.9 4.7 2.4 4.4 1.1 4.4 2.7v1.9l-3.6 1.8-4.8 1-2.4-1.5zm16.6 15.6l1.6-1.3 3.4 1.6 7.6 3.6 3.4 2.1 1.6 2.4 1.9 4.4 4 2.6-.3 1.3-3.9 3.2-4.2 1.5-1.5-.6-3.1 1.8-2.4 3.2-2.3 2.9-1.8-.2-3.6-2.6-.3-4.5.6-2.4-1.6-5.7-2.1-1.8-.2-2.6 2.3-1 2.1-3.1.5-1-1.6-1.8z" stroke-width="0.5" stroke="#4772b8" fill="#edf1f8" />
  <path id="AKc" d="M161.1 453.7l-.3 85.4 1.6 1 3.1.2 1.5-1.1h2.6l.2 2.9 7 6.8.5 2.6 3.4-1.9.6-.2.3-3.1 1.5-1.6 1.1-.2 1.9-1.5 3.1 2.1.6 2.9 1.9 1.1 1.1 2.4 3.9 1.8 3.4 6 2.7 3.9 2.3 2.7 1.5 3.7 5 1.8 5.2 2.1 1 4.4.5 3.1-1 3.4-1.8 2.3-1.6-.8-1.5-3.1-2.7-1.5-1.8-1.1-.8.8 1.5 2.7.2 3.7-1.1.5-1.9-1.9-2.1-1.3.5 1.6 1.3 1.8-.8.8s-.8-.3-1.3-1c-.5-.6-2.1-3.4-2.1-3.4l-1-2.3s-.3 1.3-1 1c-.6-.3-1.3-1.5-1.3-1.5l1.8-1.9-1.5-1.5v-5h-.8l-.8 3.4-1.1.5-1-3.7-.6-3.7-.8-.5.3 5.7v1.1l-1.5-1.3-3.6-6-2.1-.5-.6-3.7-1.6-2.9-1.6-1.1v-2.3l2.1-1.3-.5-.3-2.6.6-3.4-2.4-2.6-2.9-4.8-2.6-4-2.6 1.3-3.2V542l-1.8 1.6-2.9 1.1-3.7-1.1-5.7-2.4h-5.5l-.6.5-6.5-3.9-2.1-.3-2.7-5.8-3.6.3-3.6 1.5.5 4.5 1.1-2.9 1 .3-1.5 4.4 3.2-2.7.6 1.6-3.9 4.4-1.3-.3-.5-1.9-1.3-.8-1.3 1.1-2.7-1.8-3.1 2.1-1.8 2.1-3.4 2.1-4.7-.2-.5-2.1 3.7-.6v-1.3l-2.3-.6 1-2.4 2.3-3.9v-1.8l.2-.8 4.4-2.3 1 1.3h2.7l-1.3-2.6-3.7-.3-5 2.7-2.4 3.4-1.8 2.6-1.1 2.3-4.2 1.5-3.1 2.6-.3 1.6 2.3 1 .8 2.1-2.7 3.2-6.5 4.2-7.8 4.2-2.1 1.1-5.3 1.1-5.3 2.3 1.8 1.3-1.5 1.5-.5 1.1-2.7-1-3.2.2-.8 2.3h-1l.3-2.4-3.6 1.3-2.9 1-3.4-1.3-2.9 1.9h-3.2l-2.1 1.3-1.6.8-2.1-.3-2.6-1.1-2.3.6-1 1-1.6-1.1v-1.9l3.1-1.3 6.3.6 4.4-1.6 2.1-2.1 2.9-.6 1.8-.8 2.7.2 1.6 1.3 1-.3 2.3-2.7 3.1-1 3.4-.6 1.3-.3.6.5h.8l1.3-3.7 4-1.5 1.9-3.7 2.3-4.5 1.6-1.5.3-2.6-1.6 1.3-3.4.6-.6-2.4-1.3-.3-1 1-.2 2.9-1.5-.2-1.5-5.8-1.3 1.3-1.1-.5-.3-1.9-4 .2-2.1 1.1-2.6-.3 1.5-1.5.5-2.6-.6-1.9 1.5-1 1.3-.2-.6-1.8v-4.4l-1-1-.8 1.5h-6.1l-1.5-1.3-.6-3.9-2.1-3.6v-1l2.1-.8.2-2.1 1.1-1.1-.8-.5-1.3.5-1.1-2.7 1-5 4.5-3.2 2.6-1.6 1.9-3.7 2.7-1.3 2.6 1.1.3 2.4 2.4-.3 3.2-2.4 1.6.6 1 .6h1.6l2.3-1.3.8-4.4s.3-2.9 1-3.4c.6-.5 1-1 1-1l-1.1-1.9-2.6.8-3.2.8-1.9-.5-3.6-1.8-5-.2-3.6-3.7.5-3.9.6-2.4-2.1-1.8-1.9-3.7.5-.8 6.8-.5h2.1l1 1h.6l-.2-1.6 3.9-.6 2.6.3 1.5 1.1-1.5 2.1-.5 1.5 2.7 1.6 5 1.8 1.8-1-2.3-4.4-1-3.2 1-.8-3.4-1.9-.5-1.1.5-1.6-.8-3.9-2.9-4.7-2.4-4.2 2.9-1.9h3.2l1.8.6 4.2-.2 3.7-3.6 1.1-3.1 3.7-2.4 1.6 1 2.7-.6 3.7-2.1 1.1-.2 1 .8 4.5-.2 2.7-3.1h1.1l3.6 2.4 1.9 2.1-.5 1.1.6 1.1 1.6-1.6 3.9.3.3 3.7 1.9 1.5 7.1.6 6.3 4.2 1.5-1 5.2 2.6 2.1-.6 1.9-.8 4.8 1.9zM46 482.6l2.1 5.3-.2 1-2.9-.3-1.8-4-1.8-1.5H39l-.2-2.6 1.8-2.4 1.1 2.4 1.5 1.5zm-2.6 33.5l3.7.8 3.7 1 .8 1-1.6 3.7-3.1-.2-3.4-3.6zM22.7 502l1.1 2.6 1.1 1.6-1.1.8-2.1-3.1V502zM9 575.1l3.4-2.3 3.4-1 2.6.3.5 1.6 1.9.5 1.9-1.9-.3-1.6 2.7-.6 2.9 2.6-1.1 1.8-4.4 1.1-2.7-.5-3.7-1.1-4.4 1.5-1.6.3zm48.9-4.5l1.6 1.9 2.1-1.6-1.5-1.3zm2.9 3l1.1-2.3 2.1.3-.8 1.9h-2.4zm23.6-1.9l1.5 1.8 1-1.1-.8-1.9zm8.8-12.5l1.1 5.8 2.9.8 5-2.9 4.4-2.6-1.6-2.4.5-2.4-2.1 1.3-2.9-.8 1.6-1.1 1.9.8 3.9-1.8.5-1.5-2.4-.8.8-1.9-2.7 1.9-4.7 3.6-4.8 2.9zm42.3-19.8l2.4-1.5-1-1.8-1.8 1z" stroke-width="0.5" stroke="#4772b8" fill="#edf1f8" />
  <path id="AK" d="M161.1 453.7l-.3 85.4 1.6 1 3.1.2 1.5-1.1h2.6l.2 2.9 7 6.8.5 2.6 3.4-1.9.6-.2.3-3.1 1.5-1.6 1.1-.2 1.9-1.5 3.1 2.1.6 2.9 1.9 1.1 1.1 2.4 3.9 1.8 3.4 6 2.7 3.9 2.3 2.7 1.5 3.7 5 1.8 5.2 2.1 1 4.4.5 3.1-1 3.4-1.8 2.3-1.6-.8-1.5-3.1-2.7-1.5-1.8-1.1-.8.8 1.5 2.7.2 3.7-1.1.5-1.9-1.9-2.1-1.3.5 1.6 1.3 1.8-.8.8s-.8-.3-1.3-1c-.5-.6-2.1-3.4-2.1-3.4l-1-2.3s-.3 1.3-1 1c-.6-.3-1.3-1.5-1.3-1.5l1.8-1.9-1.5-1.5v-5h-.8l-.8 3.4-1.1.5-1-3.7-.6-3.7-.8-.5.3 5.7v1.1l-1.5-1.3-3.6-6-2.1-.5-.6-3.7-1.6-2.9-1.6-1.1v-2.3l2.1-1.3-.5-.3-2.6.6-3.4-2.4-2.6-2.9-4.8-2.6-4-2.6 1.3-3.2V542l-1.8 1.6-2.9 1.1-3.7-1.1-5.7-2.4h-5.5l-.6.5-6.5-3.9-2.1-.3-2.7-5.8-3.6.3-3.6 1.5.5 4.5 1.1-2.9 1 .3-1.5 4.4 3.2-2.7.6 1.6-3.9 4.4-1.3-.3-.5-1.9-1.3-.8-1.3 1.1-2.7-1.8-3.1 2.1-1.8 2.1-3.4 2.1-4.7-.2-.5-2.1 3.7-.6v-1.3l-2.3-.6 1-2.4 2.3-3.9v-1.8l.2-.8 4.4-2.3 1 1.3h2.7l-1.3-2.6-3.7-.3-5 2.7-2.4 3.4-1.8 2.6-1.1 2.3-4.2 1.5-3.1 2.6-.3 1.6 2.3 1 .8 2.1-2.7 3.2-6.5 4.2-7.8 4.2-2.1 1.1-5.3 1.1-5.3 2.3 1.8 1.3-1.5 1.5-.5 1.1-2.7-1-3.2.2-.8 2.3h-1l.3-2.4-3.6 1.3-2.9 1-3.4-1.3-2.9 1.9h-3.2l-2.1 1.3-1.6.8-2.1-.3-2.6-1.1-2.3.6-1 1-1.6-1.1v-1.9l3.1-1.3 6.3.6 4.4-1.6 2.1-2.1 2.9-.6 1.8-.8 2.7.2 1.6 1.3 1-.3 2.3-2.7 3.1-1 3.4-.6 1.3-.3.6.5h.8l1.3-3.7 4-1.5 1.9-3.7 2.3-4.5 1.6-1.5.3-2.6-1.6 1.3-3.4.6-.6-2.4-1.3-.3-1 1-.2 2.9-1.5-.2-1.5-5.8-1.3 1.3-1.1-.5-.3-1.9-4 .2-2.1 1.1-2.6-.3 1.5-1.5.5-2.6-.6-1.9 1.5-1 1.3-.2-.6-1.8v-4.4l-1-1-.8 1.5h-6.1l-1.5-1.3-.6-3.9-2.1-3.6v-1l2.1-.8.2-2.1 1.1-1.1-.8-.5-1.3.5-1.1-2.7 1-5 4.5-3.2 2.6-1.6 1.9-3.7 2.7-1.3 2.6 1.1.3 2.4 2.4-.3 3.2-2.4 1.6.6 1 .6h1.6l2.3-1.3.8-4.4s.3-2.9 1-3.4c.6-.5 1-1 1-1l-1.1-1.9-2.6.8-3.2.8-1.9-.5-3.6-1.8-5-.2-3.6-3.7.5-3.9.6-2.4-2.1-1.8-1.9-3.7.5-.8 6.8-.5h2.1l1 1h.6l-.2-1.6 3.9-.6 2.6.3 1.5 1.1-1.5 2.1-.5 1.5 2.7 1.6 5 1.8 1.8-1-2.3-4.4-1-3.2 1-.8-3.4-1.9-.5-1.1.5-1.6-.8-3.9-2.9-4.7-2.4-4.2 2.9-1.9h3.2l1.8.6 4.2-.2 3.7-3.6 1.1-3.1 3.7-2.4 1.6 1 2.7-.6 3.7-2.1 1.1-.2 1 .8 4.5-.2 2.7-3.1h1.1l3.6 2.4 1.9 2.1-.5 1.1.6 1.1 1.6-1.6 3.9.3.3 3.7 1.9 1.5 7.1.6 6.3 4.2 1.5-1 5.2 2.6 2.1-.6 1.9-.8 4.8 1.9zM46 482.6l2.1 5.3-.2 1-2.9-.3-1.8-4-1.8-1.5H39l-.2-2.6 1.8-2.4 1.1 2.4 1.5 1.5zm-2.6 33.5l3.7.8 3.7 1 .8 1-1.6 3.7-3.1-.2-3.4-3.6zM22.7 502l1.1 2.6 1.1 1.6-1.1.8-2.1-3.1V502zM9 575.1l3.4-2.3 3.4-1 2.6.3.5 1.6 1.9.5 1.9-1.9-.3-1.6 2.7-.6 2.9 2.6-1.1 1.8-4.4 1.1-2.7-.5-3.7-1.1-4.4 1.5-1.6.3zm48.9-4.5l1.6 1.9 2.1-1.6-1.5-1.3zm2.9 3l1.1-2.3 2.1.3-.8 1.9h-2.4zm23.6-1.9l1.5 1.8 1-1.1-.8-1.9zm8.8-12.5l1.1 5.8 2.9.8 5-2.9 4.4-2.6-1.6-2.4.5-2.4-2.1 1.3-2.9-.8 1.6-1.1 1.9.8 3.9-1.8.5-1.5-2.4-.8.8-1.9-2.7 1.9-4.7 3.6-4.8 2.9zm42.3-19.8l2.4-1.5-1-1.8-1.8 1z" transform="translate(116.64434724190677,503.315321281928) scale(0.0922857141804736) translate(-116.64434724190677,-503.315321281928)" fill="#4772b8" stroke-width="0.5" stroke="#325081" vector-effect="non-scaling-stroke" />
  <path id="HI" d="M233.1 519.3l1.9-3.6 2.3-.3.3.8-2.1 3.1zm10.2-3.7l6.1 2.6 2.1-.3 1.6-3.9-.6-3.4-4.2-.5-4 1.8zm30.7 10l3.7 5.5 2.4-.3 1.1-.5 1.5 1.3 3.7-.2 1-1.5-2.9-1.8-1.9-3.7-2.1-3.6-5.8 2.9zm20.2 8.9l1.3-1.9 4.7 1 .6-.5 6.1.6-.3 1.3-2.6 1.5-4.4-.3zm5.3 5.2l1.9 3.9 3.1-1.1.3-1.6-1.6-2.1-3.7-.3zm7-1.2l2.3-2.9 4.7 2.4 4.4 1.1 4.4 2.7v1.9l-3.6 1.8-4.8 1-2.4-1.5zm16.6 15.6l1.6-1.3 3.4 1.6 7.6 3.6 3.4 2.1 1.6 2.4 1.9 4.4 4 2.6-.3 1.3-3.9 3.2-4.2 1.5-1.5-.6-3.1 1.8-2.4 3.2-2.3 2.9-1.8-.2-3.6-2.6-.3-4.5.6-2.4-1.6-5.7-2.1-1.8-.2-2.6 2.3-1 2.1-3.1.5-1-1.6-1.8z" transform="translate(313.6156943373477,552.7529527265032) scale(0.40612740280895937) translate(-313.6156943373477,-552.7529527265032)" fill="#4772b8" stroke-width="0.5" stroke="#325081" vector-effect="non-scaling-stroke" />
  <path id="AL" d="M628.5 466.4l.6.2 1.3-2.7 1.5-4.4 2.3.6 3.1 6v1l-2.7 1.9 2.7.3 5.2-2.5-.3-7.6-2.5-1.8-2-2 .4-4 10.5-1.5 25.7-2.9 6.7-.6 5.6.1-.5-2.2-1.5-.8-.9-1.1 1-2.6-.4-5.2-1.6-4.5.8-5.1 1.7-4.8-.2-1.7-1.8-.7-.5-3.6-2.7-3.4-2-6.5-1.4-6.7-1.8-5-3.8-16-3.5-7.9-.8-5.6.1-2.2-9 .8-23.4 2.2-12.2.8-.2 6.4.2 16.7-.7 31-.3 14.1 2.8 18.8 1.6 14.7z" transform="translate(649.3339780610712,410.8131774923492) scale(0.23040064877945582) translate(-649.3339780610712,-410.8131774923492)" fill="#4772b8" stroke-width="0.5" stroke="#325081" vector-effect="non-scaling-stroke" />
  <path id="AR" d="M587.3 346.1l-6.4-.7.9-3.1 3.1-2.6.6-2.3-1.8-2.9-31.9 1.2-23.3.7-23.6.3 1.5 6.9.1 8.5 1.4 10.9.3 38.2 2.1 1.6 3-1.2 2.9 1.2.4 10.1 25.2-.2 26.8-.8.9-1.9-.3-3.8-1.7-3.1 1.5-1.4-1.4-2.2.7-2.4 1.1-5.9 2.7-2.3-.8-2.2 4-5.6 2.5-1.1-.1-1.7-.5-1.7 2.9-5.8 2.5-1.1.2-3.3 2.1-1.4.9-4.1-1.4-4 4.2-2.4.3-2.1 1.2-4.2.9-3.1z" transform="translate(543.8836248763489,371.1753673046885) scale(0.18317537655943847) translate(-543.8836248763489,-371.1753673046885)" fill="#4772b8" stroke-width="0.5" stroke="#325081" vector-effect="non-scaling-stroke" />
  <path id="AZ" d="M135.1 389.7l-.3 1.5.5 1 18.9 10.7 12.1 7.6 14.7 8.6 16.8 10 12.3 2.4 25.4 2.7 6-39.6 7-53.1 4.4-31-24.6-3.6-60.7-11-.2 1.1-2.6 16.5-2.1 3.8-2.8-.2-1.2-2.6-2.6-.4-1.2-1.1-1.1.1-2.1 1.7-.3 6.8-.3 1.5-.5 12.5-1.5 2.4-.4 3.3 2.8 5 1.1 5.5.7 1.1 1.1.9-.4 2.4-1.7 1.2-3.4 1.6-1.6 1.8-1.6 3.6-.5 4.9-3 2.9-1.9.9-.1 5.8-.6 1.6.5.8 3.9.4-.9 3-1.7 2.4-3.7.4z" transform="translate(198.4047421175812,363.1645959047197) scale(0.16900012533859582) translate(-198.4047421175812,-363.1645959047197)" fill="#4772b8" stroke-width="0.5" stroke="#325081" vector-effect="non-scaling-stroke" />
  <path id="CA" d="M122.7 385.9l-19.7-2.7-10-1.5-.5-1.8v-9.4l-.3-3.2-2.6-4.2-.8-2.3-3.9-4.2-2.9-4.7-2.7-.2-3.2-.8-.3-1 1.5-.6-.6-3.2-1.5-2.1-4.8-.8-3.9-2.1-1.1-2.3-2.6-4.8-2.9-3.1H57l-3.9-2.1-4.5-1.8-4.2-.5-2.4-2.7.5-1.9 1.8-7.1.8-1.9v-2.4l-1.6-1-.5-2.9-1.5-2.6-3.4-5.8-1.3-3.1-1.5-4.7-1.6-5.3-3.2-4.4-.5-2.9.8-3.9h1.1l2.1-1.6 1.1-3.6-1-2.7-2.7-.5-1.9-2.6-2.1-3.7-.2-8.2.6-1.9.6-2.3.5-2.4-5.7-6.3V236l.3-.5.3-3.2-1.3-4-2.3-4.8-2.7-4.5-1.8-3.9 1-3.7.6-5.8 1.8-3.1.3-6.5-1.1-3.6-1.6-4.2L14 184l.8-3.2 1.5-4.2 1.8-.8.3-1.1 3.1-2.6 5.2-11.8.2-7.4 1.69-4.9 38.69 11.8 25.6 6.6-8 31.3-8.67 33.1L88.84 250 131 312.3l17.1 26.1-.4 3.1 2.8 5.2 1.1 5.4 1 1.5.7.6-.2 1.4-1.4 1-3.4 1.6-1.9 2.1-1.7 3.9-.5 4.7-2.6 2.5-2.3 1.1-.1 6.2-.6 1.9 1 1.7 3 .3-.4 1.6-1.4 2-3.9.6zM48.8 337l1.3 1.5-.2 1.3-3.2-.1-.6-1.2-.6-1.5zm1.9 0l1.2-.6 3.6 2.1 3.1 1.2-.9.6-4.5-.2-1.6-1.6zm20.7 19.8l1.8 2.3.8 1 1.5.6.6-1.5-1-1.8-2.7-2-1.1.2v1.2zm-1.4 8.7l1.8 3.2 1.2 1.9-1.5.2-1.3-1.2s-.7-1.5-.7-1.9v-2.2z" transform="translate(75.6316505642214,272.13053170138113) scale(0.3185309682607657) translate(-75.6316505642214,-272.13053170138113)" fill="#4772b8" stroke-width="0.5" stroke="#325081" vector-effect="non-scaling-stroke" />
  <path id="CO" d="M380.2 235.5l-36-3.5-79.1-8.6-2.2 22.1-7 50.4-1.9 13.7 34 3.9 37.5 4.4 34.7 3 14.3.6z" transform="translate(318.51112872301303,273.2796492373253) scale(0.1702397785289215) translate(-318.51112872301303,-273.2796492373253)" fill="#4772b8" stroke-width="0.5" stroke="#325081" vector-effect="non-scaling-stroke" />
  <path id="CT" d="M852 190.9l3.6-3.2 1.9-2.1.8.6 2.7-1.5 5.2-1.1 7-3.5-.6-4.2-.8-4.4-1.6-6-4.3 1.1-21.8 4.7.6 3.1 1.5 7.3v8.3l-.9 2.1 1.7 2.2z" transform="translate(857.8401010770702,177.8392932546621) scale(0.6499303936408033) translate(-857.8401010770702,-177.8392932546621)" fill="#4772b8" stroke-width="0.5" stroke="#325081" vector-effect="non-scaling-stroke" />
  <path id="DE" d="M834.4 247.2l-1 .5-3.6-2.4-1.8-4.7-1.9-3.6-2.3-1-2.1-3.6.5-2 .5-2.3.1-1.1-.6.1-1.7 1-2 1.7-.2.3 1.4 4.1 2.3 5.6 3.7 16.1 5-.3 6-1.1z" transform="translate(827.0571991921589,245.14890601612333) scale(0.6977556047093345) translate(-827.0571991921589,-245.14890601612333)" fill="#4772b8" stroke-width="0.5" stroke="#325081" vector-effect="non-scaling-stroke" />
  <path id="FL" d="M750.2 445.2l-5.2-.7-.7.8 1.5 4.4-.4 5.2-4.1-1-.2-2.8H737l-5.3.7-32.4 1.9-8.2-.3-1.7-1.7-2.5-4.2H681l-6.6.5-35.4 4.2-.3 2.8 1.6 1.6 2.9 2 .3 8.4 3.3-.6 6-2.1 6-.5 4.4-.6 7.6 1.8 8.1 3.9 1.6 1.5 2.9 1.1 1.6 1.9.3 2.7 3.2-1.3h3.9l3.6-1.9 3.7-3.6 3.1.2.5-1.1-.8-1 .2-1.9 4-.8h2.6l2.9 1.5 4.2 1.5 2.4 3.7 2.7 1 1.1 3.4 3.4 1.6 1.6 2.6 1.9.6 5.2 1.3 1.3 3.1 3 3.7v9.5l-1.5 4.7.3 2.7 1.3 4.8 1.8 4 .8-.5 1.5-4.5-2.6-1-.3-.6 1.6-.6 4.5 1 .2 1.6-3.2 5.5-2.1 2.4 3.6 3.7 2.6 3.1 2.9 5.3 2.9 3.9 2.1 5 1.8.3 1.6-2.1 1.8 1.1 2.6 4 .6 3.6 3.1 4.4.8-1.3 3.9.3 3.6 2.3 3.4 5.2.8 3.4.3 2.9 1.1 1 1.3.5 2.4-1 1.5-1.6 3.9-.2 3.1-1.5 2.7-3.2-.5-1.9-.3-2.4.6-1.9-.3-1.9 2.4-1.3.3-3.4-.6-1.8-.5-12-1.3-7.6-4.5-8.2-3.6-5.8-2.6-5.3-2.9-2.9-2.9-7.4.7-1.4 1.1-1.3-1.6-2.9-4-3.7-4.8-5.5-3.7-6.3-5.3-9.4-3.7-9.7-2.3-7.3zm17.7 132.7l2.4-.6 1.3-.2 1.5-2.3 2.3-1.6 1.3.5 1.7.3.4 1.1-3.5 1.2-4.2 1.5-2.3 1.2zm13.5-5l1.2 1.1 2.7-2.1 5.3-4.2 3.7-3.9 2.5-6.6 1-1.7.2-3.4-.7.5-1 2.8-1.5 4.6-3.2 5.3-4.4 4.2-3.4 1.9z" transform="translate(743.3601692352418,493.1937648388171) scale(0.39123391454276596) translate(-743.3601692352418,-493.1937648388171)" fill="#4772b8" stroke-width="0.5" stroke="#325081" vector-effect="non-scaling-stroke" />
  <path id="GA" d="M750.2 444.2l-5.6-.7-1.4 1.6 1.6 4.7-.3 3.9-2.2-.6-.2-3h-5.2l-5.3.7-32.3 1.9-7.7-.3-1.4-1.2-2.5-4.3-.8-3.3-1.6-.9-.5-.5.9-2.2-.4-5.5-1.6-4.5.8-4.9 1.7-4.8-.2-2.5-1.9-.7-.4-3.2-2.8-3.5-1.9-6.2-1.5-7-1.7-4.8-3.8-16-3.5-8-.8-5.3.1-2.3 3.3-.3 13.6-1.6 18.6-2 6.3-1.1.5 1.4-2.2.9-.9 2.2.4 2 1.4 1.6 4.3 2.7 3.2-.1 3.2 4.7.6 1.6 2.3 2.8.5 1.7 4.7 1.8 3 2.2 2.3 3 2.3 1.3 2 1.8 1.4 2.7 2.1 1.9 4.1 1.8 2.7 6 1.7 5.1 2.8.7 2.1 1.9 2 5.7 2.9 1.6 1.7-.8.4 1.2-3.3 6.2.5 2.6-1.5 4.2-2.3 10 .8 6.3z" transform="translate(712.2257852519868,407.98506746763525) scale(0.2847409028698047) translate(-712.2257852519868,-407.98506746763525)" fill="#4772b8" stroke-width="0.5" stroke="#325081" vector-effect="non-scaling-stroke" />
  <path id="IA" d="M556.8 183.6l2.1 2.1.3.7-2 3 .3 4 2.6 4.1 3.1 1.6 2.4.3.9 1.8.2 2.4 2.5 1 .9 1.1.5 1.6 3.8 3.3.6 1.9-.7 3-1.7 3.7-.6 2.4-2.1 1.6-1.6.5-5.7 1.5-1.6 4.8.8 1.8 1.7 1.5-.2 3.5-1.9 1.4-.7 1.8v2.4l-1.4.4-1.7 1.4-.5 1.7.4 1.7-1.3 1-2.3-2.7-1.4-2.8-8.3.8-10 .6-49.2 1.2-1.6-4.3-.4-6.7-1.4-4.2-.7-5.2-2.2-3.7-1-4.6-2.7-7.8-1.1-5.6-1.4-1.9-1.3-2.9 1.7-3.8 1.2-6.1-2.7-2.2-.3-2.4.7-2.4 1.8-.3 61.1-.6 21.2-.7z" transform="translate(520.8885038838887,212.38095911825272) scale(0.17916216772754195) translate(-520.8885038838887,-212.38095911825272)" fill="#4772b8" stroke-width="0.5" stroke="#325081" vector-effect="non-scaling-stroke" />
  <path id="ID" d="M175.3 27.63l-4.8 17.41L166 65.9l-3.4 16.22-.4 9.67 1.2 4.44 3.5 2.66-.2 3.91-3.9 4.4-4.5 6.6-.9 2.9-1.2 1.1-1.8.8-4.3 5.3-.4 3.1-.4 1.1.6 1 2.6-.1 1.1 2.3-2.4 5.8-1.2 4.2-8.8 35.3 20.7 4.5 39.5 7.9 34.8 6.1 4.9-29.2 3.8-24.1-2.7-2.4-.4-2.6-.8-1.1-2.1 1-.7 2.6-3.2.5-3.9-1.6-3.8.1-2.5.7-3.4-1.5-2.4.2-2.4 2-2-1.1-.7-4 .7-2.9-2.5-2.9-3.3-2.6-2.7-13.1-.1-4.7-.3-.1-.2.4-5.1 3.5-1.7-.2-2.9-3.4-.2-3.1 7-17.13-.4-1.94-3.4-1.15-.6-1.18-2.6-3.46-4.6-10.23-3.2-1.53-2-4.95 1.3-4.63-3.2-7.58 4.4-21.52z" transform="translate(189.38042166198602,134.55737166218321) scale(0.12036183210688502) translate(-189.38042166198602,-134.55737166218321)" fill="#4772b8" stroke-width="0.5" stroke="#325081" vector-effect="non-scaling-stroke" />
  <path id="IL" d="M618.7 214.3l-.8-2.6-1.3-3.7-1.6-1.8-1.5-2.6-.4-5.5-15.9 1.8-17.4 1h-12.3l.2 2.1 2.2.9 1.1 1.4.4 1.4 3.9 3.4.7 2.4-.7 3.3-1.7 3.7-.8 2.7-2.4 1.9-1.9.6-5.2 1.3-1.3 4.1.6 1.1 1.9 1.8-.2 4.3-2.1 1.6-.5 1.3v2.8l-1.8.6-1.4 1.2-.4 1.2.4 2-1.6 1.3-.9 2.8.3 3.9 2.3 7 7 7.6 5.7 3.7v4.4l.7 1.2 6.6.6 2.7 1.4-.7 3.5-2.2 6.2-.8 3 2 3.7 6.4 5.3 4.8.8 2.2 5.1 2 3.4-.9 2.8 1.5 3.8 1.7 2.1 1.6-.3 1-2.2 2.4-1.7 2.8-1 6.1 2.5.5-.2v-1.1l-1.2-2.7.4-2.8 2.4-1.6 3.4-1.2-.5-1.3-.8-2 1.2-1.3 1-2.7v-4l.4-4.9 2.5-3 1.8-3.8 2.5-4-.5-5.3-1.8-3.2-.3-3.3.8-5.3-.7-7.2-1.1-15.8-1.4-15.3-.9-11.7z" transform="translate(594.502882191416,254.15118548034027) scale(0.31675332962538255) translate(-594.502882191416,-254.15118548034027)" fill="#4772b8" stroke-width="0.5" stroke="#325081" vector-effect="non-scaling-stroke" />
  <path id="IN" d="M622.9 216.1l1.5 1 1.1-.3 2.1-1.9 2.5-1.8 14.3-1.1 18.4-1.8 1.6 15.5 4.9 42.6-.6 2.9 1.3 1.6.2 1.3-2.3 1.6-3.6 1.7-3.2.4-.5 4.8-4.7 3.6-2.9 4 .2 2.4-.5 1.4h-3.5l-1.4-1.7-5.2 3 .2 3.1-.9.2-.5-.9-2.4-1.7-3.6 1.5-1.4 2.9-1.2-.6-1.6-1.8-4.4.5-5.7 1-2.5 1.3v-2.6l.4-4.7 2.3-2.9 1.8-3.9 2.7-4.2-.5-5.8-1.8-3.1-.3-3.2.8-5.3-.7-7.1-.9-12.6-2.5-30.1z" transform="translate(643.5293928807704,253.10843266531984) scale(0.3047851373775973) translate(-643.5293928807704,-253.10843266531984)" fill="#4772b8" stroke-width="0.5" stroke="#325081" vector-effect="non-scaling-stroke" />
  <path id="KS" d="M485.9 259.5l-43.8-.6-40.6-1.2-21.7-.9-4.3 64.8 24.3 1 44.7 2.1 46.3.6 12.6-.3.7-35-1.2-11.1-2.5-2-2.4-3-2.3-3.6.6-3 1.7-1.4v-2.1l-.8-.7-2.6-.2-3.5-3.4z" transform="translate(439.881505832288,291.87378300880283) scale(0.1483832635301531) translate(-439.881505832288,-291.87378300880283)" fill="#4772b8" stroke-width="0.5" stroke="#325081" vector-effect="non-scaling-stroke" />
  <path id="KY" d="M607.2 331.8l12.6-.7.1-4.1h4.3l30.4-3.2 45.1-4.3 5.6-3.6 3.9-2.1.1-1.9 6-7.8 4.1-3.6 2.1-2.4-3.3-2-2.5-2.7-3-3.8-.5-2.2-2.6-1.4-.9-1.9-.2-6.1-2.6-2-1.9-1.1-.5-2.3-1.3.2-2 1.2-2.5 2.7-1.9-1.7-2.5-.5-2.4 1.4h-2.3l-1.8-2-5.6-.1-1.8-4.5-2.9-1.5-2.1.8-4.2.2-.5 2.1 1.2 1.5.3 2.1-2.8 2-3.8 1.8-2.6.4-.5 4.5-4.9 3.6-2.6 3.7.2 2.2-.9 2.3-4.5-.1-1.3-1.3-3.9 2.2.2 3.3-2.4.6-.8-1.4-1.7-1.2-2.7 1.1-1.8 3.5-2.2-1-1.4-1.6-3.7.4-5.6 1-2.8 1.3-1.2 3.4-1 1 1.5 3.7-4.2 1.4-1.9 1.4-.4 2.2 1.2 2.4v2.2l-1.6.4-6.1-2.5-2.3.9-2 1.4-.8 1.8 1.7 2.4-.9 1.8-.1 3.3-2.4 1.3-2.1 1.7z" transform="translate(666.1215080413372,303.4552174943693) scale(0.24698003003444524) translate(-666.1215080413372,-303.4552174943693)" fill="#4772b8" stroke-width="0.5" stroke="#325081" vector-effect="non-scaling-stroke" />
  <path id="LA" d="M526.9 485.9l8.1-.3 10.3 3.6 6.5 1.1 3.7-1.5 3.2 1.1 3.2 1 .8-2.1-3.2-1.1-2.6.5-2.7-1.6.8-1.5 3.1-1 1.8 1.5 1.8-1 3.2.6 1.5 2.4.3 2.3 4.5.3 1.8 1.8-.8 1.6-1.3.8 1.6 1.6 8.4 3.6 3.6-1.3 1-2.4 2.6-.6 1.8-1.5 1.3 1 .8 2.9-2.3.8.6.6 3.4-1.3 2.3-3.4.8-.5-2.1-.3.8-1.6-.2-1.5 2.1-.5 1.1-1.3.6.8.6 3.1 4.2.6 4 1.9 1 1.5h2.9l1.1 1 2.3-3.1V493h-1.3l-3.4-2.7-5.8-.8-3.2-2.3 1.1-2.7 2.3.3.2-.6-1.8-1v-.5h3.2l1.8-3.1-1.3-1.9-.3-2.7-1.5.2-1.9 2.1-.6 2.6-3.1-.6-1-1.8 1.8-1.9 1.9-1.7-2.2-6.5-3.4-3.4 1-7.3-.2-.5-1.3.2-33.1 1.4-.8-2.4.8-8.5 8.6-14.8-.9-2.6 1.4-.4.4-2-2.2-2 .1-1.9-2-4.5-.4-5.1.1-.7-26.4.8-25.2.1.4 9.7.7 9.5.5 3.7 2.6 4.5.9 4.4 4.3 6 .3 3.1.6.8-.7 8.3-2.8 4.6 1.2 2.4-.5 2.6-.8 7.3-1.3 3 .2 3.7z" transform="translate(556.3775947982837,456.9907329755984) scale(0.22466015314524881) translate(-556.3775947982837,-456.9907329755984)" fill="#4772b8" stroke-width="0.5" stroke="#325081" vector-effect="non-scaling-stroke" />
  <path id="MA" d="M887.5 172.5l-.5-2.3.8-1.5 2.9-1.5.8 3.1-.5 1.8-2.4 1.5v1l1.9-1.5 3.9-4.5 3.9-1.9 4.2-1.5-.3-2.4-1-2.9-1.9-2.4-1.8-.8-2.1.2-.5.5 1 1.3 1.5-.8 2.1 1.6.8 2.7-1.8 1.8-2.3 1-3.6-.5-3.9-6-2.3-2.6h-1.8l-1.1.8-1.9-2.6.3-1.5 2.4-5.2-2.9-4.4-3.7 1.8-1.8 2.9-18.3 4.7-13.8 2.5-.6 10.6.7 4.9 22-4.8 11.2-2.8 2 1.6 3.4 4.3 2.9 4.7zm12.5 1.4l2.2-.7.5-1.7 1 .1 1 2.3-1.3.5-3.9.1zm-9.4.8l2.3-2.6h1.6l1.8 1.5-2.4 1-2.2 1z" transform="translate(870.0499383582057,159.79642397523156) scale(0.6325303030581303) translate(-870.0499383582057,-159.79642397523156)" fill="#4772b8" stroke-width="0.5" stroke="#325081" vector-effect="non-scaling-stroke" />
  <path id="MD" d="M834.8 264.1l1.7-3.8.5-4.8-6.3 1.1-5.8.3-3.8-16.8-2.3-5.5-1.5-4.6-22.2 4.3-37.6 7.6 2 10.4 4.8-4.9 2.5-.7 1.4-1.5 1.8-2.7 1.6.7 2.6-.2 2.6-2.1 2-1.5 2.1-.6 1.5 1.1 2.7 1.4 1.9 1.8 1.3 1.4 4.8 1.6-.6 2.9 5.8 2.1 2.1-2.6 3.7 2.5-2.1 3.3-.7 3.3-1.8 2.6v2.1l.3.8 2 1.3 3.4 1.1 4.3-.1 3.1 1 2.1.3 1-2.1-1.5-2.1v-1.8l-2.4-2.1-2.1-5.5 1.3-5.3-.2-2.1-1.3-1.3s1.5-1.6 1.5-2.3c0-.6.5-2.1.5-2.1l1.9-1.3 1.9-1.6.5 1-1.5 1.6-1.3 3.7.3 1.1 1.8.3.5 5.5-2.1 1 .3 3.6.5-.2 1.1-1.9 1.6 1.8-1.6 1.3-.3 3.4 2.6 3.4 3.9.5 1.6-.8 3.2 4.2 1 .4zm-14.5.2l1.1 2.5.2 1.8 1.1 1.9s.9-.9.9-1.2c0-.3-.7-3.1-.7-3.1l-.7-2.3z" transform="translate(804.7983118361173,247.9742042922193) scale(0.5308740529123338) translate(-804.7983118361173,-247.9742042922193)" fill="#4772b8" stroke-width="0.5" stroke="#325081" vector-effect="non-scaling-stroke" />
  <path id="ME" d="M865.8 91.9l1.5.4v-2.6l.8-5.5 2.6-4.7 1.5-4-1.9-2.4v-6l.8-1 .8-2.7-.2-1.5-.2-4.8 1.8-4.8 2.9-8.9 2.1-4.2h1.3l1.3.2v1.1l1.3 2.3 2.7.6.8-.8v-1l4-2.9 1.8-1.8 1.5.2 6 2.4 1.9 1 9.1 29.9h6l.8 1.9.2 4.8 2.9 2.3h.8l.2-.5-.5-1.1 2.8-.5 1.9 2.1 2.3 3.7V85l-2.1 4.7-1.9.6-3.4 3.1-4.8 5.5h-1.3c-.6 0-1-2.1-1-2.1l-1.8.2-1 1.5-2.4 1.5-1 1.5 1.6 1.5-.5.6-.5 2.7-1.9-.2v-1.6l-.3-1.3-1.5.3-1.8-3.2-2.1 1.3 1.3 1.5.3 1.1-.8 1.3.3 3.1.2 1.6-1.6 2.6-2.9.5-.3 2.9-5.3 3.1-1.3.5-1.6-1.5-3.1 3.6 1 3.2-1.5 1.3-.2 4.4-1.1 6.3-2.2-.9-.5-3.1-4-1.1-.2-2.5-11.7-37.43zm36.5 15.6l1.5-1.5 1.4 1.1.6 2.4-1.7.9zm6.7-5.9l1.8 1.9s1.3.1 1.3-.2c0-.3.2-2 .2-2l.9-.8-.8-1.8-2 .7z" transform="translate(890.9776856960424,82.62495976273415) scale(0.19057291957244765) translate(-890.9776856960424,-82.62495976273415)" fill="#4772b8" stroke-width="0.5" stroke="#325081" vector-effect="non-scaling-stroke" />
  <path id="MI" d="M644.5 211l19.1-1.9.2 1.1 9.9-1.5 12-1.7.1-.6.2-1.5 2.1-3.7 2-1.7-.2-5.1 1.6-1.6 1.1-.3.2-3.6 1.5-3 1.1.6.2.6.8.2 1.9-1-.4-9.1-3.2-8.2-2.3-9.1-2.4-3.2-2.6-1.8-1.6 1.1-3.9 1.8-1.9 5-2.7 3.7-1.1.6-1.5-.6s-2.6-1.5-2.4-2.1c.2-.6.5-5 .5-5l3.4-1.3.8-3.4.6-2.6 2.4-1.6-.3-10-1.6-2.3-1.3-.8-.8-2.1.8-.8 1.6.3.2-1.6-2.6-2.2-1.3-2.6h-2.6l-4.5-1.5-5.5-3.4h-2.7l-.6.6-1-.5-3.1-2.3-2.9 1.8-2.9 2.3.3 3.6 1 .3 2.1.5.5.8-2.6.8-2.6.3-1.5 1.8-.3 2.1.3 1.6.3 5.5-3.6 2.1-.6-.2v-4.2l1.3-2.4.6-2.4-.8-.8-1.9.8-1 4.2-2.7 1.1-1.8 1.9-.2 1 .6.8-.6 2.6-2.3.5v1.1l.8 2.4-1.1 6.1-1.6 4 .6 4.7.5 1.1-.8 2.4-.3.8-.3 2.7 3.6 6 2.9 6.5 1.5 4.8-.8 4.7-1 6-2.4 5.2-.3 2.7-3.2 3.1zm-33.3-72.4l-1.3-1.1-1.8-10.4-3.7-1.3-1.7-2.3-12.6-2.8-2.8-1.1-8.1-2.2-7.8-1-3.9-5.3.7-.5 2.7-.8 3.6-2.3v-1l.6-.6 6-1 2.4-1.9 4.4-2.1.2-1.3 1.9-2.9 1.8-.8 1.3-1.8 2.3-2.3 4.4-2.4 4.7-.5 1.1 1.1-.3 1-3.7 1-1.5 3.1-2.3.8-.5 2.4-2.4 3.2-.3 2.6.8.5 1-1.1 3.6-2.9 1.3 1.3h2.3l3.2 1 1.5 1.1 1.5 3.1 2.7 2.7 3.9-.2 1.5-1 1.6 1.3 1.6.5 1.3-.8h1.1l1.6-1 4-3.6 3.4-1.1 6.6-.3 4.5-1.9 2.6-1.3 1.5.2v5.7l.5.3 2.9.8 1.9-.5 6.1-1.6 1.1-1.1 1.5.5v7l3.2 3.1 1.3.6 1.3 1-1.3.3-.8-.3-3.7-.5-2.1.6-2.3-.2-3.2 1.5h-1.8l-5.8-1.3-5.2.2-1.9 2.6-7 .6-2.4.8-1.1 3.1-1.3 1.1-.5-.2-1.5-1.6-4.5 2.4h-.6l-1.1-1.6-.8.2-1.9 4.4-1 4-3.2 6.9zm-29.6-56.5l1.8-2.1 2.2-.8 5.4-3.9 2.3-.6.5.5-5.1 5.1-3.3 1.9-2.1.9zm86.2 32.1l.6 2.5 3.2.2 1.3-1.2s-.1-1.5-.4-1.6c-.3-.2-1.6-1.9-1.6-1.9l-2.2.2-1.6.2-.3 1.1z" transform="translate(648.2514483209466,154.43583683935586) scale(0.2767254375475795) translate(-648.2514483209466,-154.43583683935586)" fill="#4772b8" stroke-width="0.5" stroke="#325081" vector-effect="non-scaling-stroke" />
  <path id="MN" d="M464.6 66.79l-.6 3.91v10.27l1.6 5.03 1.9 3.32.5 9.93 1.8 13.45 1.8 7.3.4 6.4v5.3l-1.6 1.8-1.8 1.3v1.5l.9 1.7 4.1 3.5.7 3.2v35.9l60.3-.6 21.2-.7-.5-6-1.8-2.1-7.2-4.6-3.6-5.3-3.4-.9-2-2.8h-3.2l-3.5-3.8-.5-7 .1-3.9 1.5-3-.7-2.7-2.8-3.1 2.2-6.1 5.4-4 1.2-1.4-.2-8 .2-3 2.6-3 3.8-2.9 1.3-.2 4.5-5 1.8-.8 2.3-3.9 2.4-3.6 3.1-2.6 4.8-2 9.2-4.1 3.9-1.8.6-2.3-4.4.4-.7 1.1h-.6l-1.8-3.1-8.9.3-1 .8h-1l-.5-1.3-.8-1.8-2.6.5-3.2 3.2-1.6.8h-3.1l-2.6-1v-2.1l-1.3-.2-.5.5-2.6-1.3-.5-2.9-1.5.5-.5 1-2.4-.5-5.3-2.4-3.9-2.6h-2.9l-1.3-1-2.3.6-1.1 1.1-.3 1.3h-4.8v-2.1l-6.3-.3-.3-1.5h-4.8l-1.6-1.6-1.5-6.1-.8-5.5-1.9-.8-2.3-.5-.6.2-.3 8.2-30.1-.03z" transform="translate(506.7338323611276,119.43256971789752) scale(0.18860616531227375) translate(-506.7338323611276,-119.43256971789752)" fill="#4772b8" stroke-width="0.5" stroke="#325081" vector-effect="non-scaling-stroke" />
  <path id="MO" d="M593.1 338.7l.5-5.9 4.2-3.4 1.9-1v-2.9l.7-1.6-1.1-1.6-2.4.3-2.1-2.5-1.7-4.5.9-2.6-2-3.2-1.8-4.6-4.6-.7-6.8-5.6-2.2-4.2.8-3.3 2.2-6 .6-3-1.9-1-6.9-.6-1.1-1.9v-4.1l-5.3-3.5-7.2-7.8-2.3-7.3-.5-4.2.7-2.4-2.6-3.1-1.2-2.4-7.7.8-10 .6-48.8 1.2 1.3 2.6-.1 2.2 2.3 3.6 3 3.9 3.1 3 2.6.2 1.4 1.1v2.9l-1.8 1.6-.5 2.3 2.1 3.2 2.4 3 2.6 2.1 1.3 11.6-.8 40 .5 5.7 23.7-.2 23.3-.7 32.5-1.3 2.2 3.7-.8 3.1-3.1 2.5-.5 1.8 5.2.5 4.1-1.1z" transform="translate(540.7289723775789,294.1897822316326) scale(0.20791997822448632) translate(-540.7289723775789,-294.1897822316326)" fill="#4772b8" stroke-width="0.5" stroke="#325081" vector-effect="non-scaling-stroke" />
  <path id="MS" d="M604.3 472.5l2.6-4.2 1.8.8 6.8-1.9 2.1.3 1.5.8h5.2l.4-1.6-1.7-14.8-2.8-19 1-45.1-.2-16.7.2-6.3-4.8.3-19.6 1.6-13 .4-.2 3.2-2.8 1.3-2.6 5.1.5 1.6.1 2.4-2.9 1.1-3.5 5.1.8 2.3-3 2.5-1 5.7-.6 1.9 1.6 2.5-1.5 1.4 1.5 2.8.3 4.2-1.2 2.5-.2.9.4 5 2 4.5-.1 1.7 2.3 2-.7 3.1-.9.3.6 1.9-8.6 15-.8 8.2.5 1.5 24.2-.7 8.2-.7 1.9-.3.6 1.4-1 7.1 3.3 3.3 2.2 6.4z" transform="translate(597.0455848655384,416.7408617689977) scale(0.19317102435981515) translate(-597.0455848655384,-416.7408617689977)" fill="#4772b8" stroke-width="0.5" stroke="#325081" vector-effect="non-scaling-stroke" />
  <path id="MT" d="M361.1 70.77l-5.3 57.13-1.3 15.2-59.1-6.6-49-7.1-1.4 11.2-1.9-1.7-.4-2.5-1.3-1.9-3.3 1.5-.7 2.5-2.3.3-3.8-1.6-4.1.1-2.4.7-3.2-1.5-3 .2-2.1 1.9-.9-.6-.7-3.4.7-3.2-2.7-3.2-3.3-2.5-2.5-12.6-.1-5.3-1.6-.8-.6 1-4.5 3.2-1.2-.1-2.3-2.8-.2-2.8 7-17.15-.6-2.67-3.5-1.12-.4-.91-2.7-3.5-4.6-10.41-3.2-1.58-1.8-4.26 1.3-4.63-3.2-7.57 4.4-21.29L222 37.3l18.4 3.4 32.3 5.3 29.3 4 29.2 3.5 30.8 3.07z" transform="translate(275.03176183417963,88.92077801225119) scale(0.09014007667651294) translate(-275.03176183417963,-88.92077801225119)" fill="#4772b8" stroke-width="0.5" stroke="#325081" vector-effect="non-scaling-stroke" />
  <path id="NC" d="M786.7 357.7L774 350l-3.1-.8-16.6 2.1-1.6-3-2.8-2.2-16.7.5-7.4.9-9.2 4.5-6.8 2.7-6.5 1.2-13.4 1.4.1-4.1 1.7-1.3 2.7-.7.7-3.8 3.9-2.5 3.9-1.5 4.5-3.7 4.4-2.3.7-3.2 4.1-3.8.7 1 2.5.2 2.4-3.6 1.7-.4 2.6.3 1.8-4 2.5-2.4.5-1.8.1-3.5 4.4.1 38.5-5.6 57.5-12.3 2 4.8 3.6 6.5 2.4 2.4.6 2.3-2.4.2.8.6-.3 4.2-2.6 1.3-.6 2.1-1.3 2.9-3.7 1.6-2.4-.3-1.5-.2-1.6-1.3.3 1.3v1h1.9l.8 1.3-1.9 6.3h4.2l.6 1.6 2.3-2.3 1.3-.5-1.9 3.6-3.1 4.8H828l-1.1-.5-2.7.6-5.2 2.4-6.5 5.3-3.4 4.7-1.9 6.5-.5 2.4-4.7.5-5.1 1.5zm49.3-26.2l2.6-2.5 3.2-2.6 1.5-.6.2-2-.6-6.1-1.5-2.3-.6-1.9.7-.2 2.7 5.5.4 4.4-.2 3.4-3.4 1.5-2.8 2.4-1.1 1.2z" transform="translate(777.8376277565079,331.50940820935335) scale(0.30580477295444114) translate(-777.8376277565079,-331.50940820935335)" fill="#4772b8" stroke-width="0.5" stroke="#325081" vector-effect="non-scaling-stroke" />
  <path id="ND" d="M471 126.4l-.4-6.2-1.8-7.3-1.8-13.61-.5-9.7-1.9-3.18-1.6-5.32V70.68l.6-3.85-1.8-5.54-28.6-.59-18.6-.6-26.5-1.3-25.2-2.16-.9 14.42-4.7 50.94 56.8 3.9 56.9 1.7z" transform="translate(413.40461212631084,93.29516792181764) scale(0.11325148068526977) translate(-413.40461212631084,-93.29516792181764)" fill="#4772b8" stroke-width="0.5" stroke="#325081" vector-effect="non-scaling-stroke" />
  <path id="NE" d="M470.3 204.3l-1-2.3-.5-1.6-2.9-1.6-4.8-1.5-2.2-1.2-2.6.1-3.7.4-4.2 1.2-6-4.1-2.2-2-10.7.6-41.5-2.4-35.6-2.2-4.3 43.7 33.1 3.3-1.4 21.1 21.7 1 40.6 1.2 43.8.6h4.5l-2.2-3-2.6-3.9.1-2.3-1.4-2.7-1.9-5.2-.4-6.7-1.4-4.1-.5-5-2.3-3.7-1-4.7-2.8-7.9-1-5.3z" transform="translate(417.94301670569644,223.6802008902251) scale(0.13923020895762034) translate(-417.94301670569644,-223.6802008902251)" fill="#4772b8" stroke-width="0.5" stroke="#325081" vector-effect="non-scaling-stroke" />
  <path id="NH" d="M881.7 141.3l1.1-3.2-2.7-1.2-.5-3.1-4.1-1.1-.3-3-11.7-37.48-.7.08-.6 1.6-.6-.5-1-1-1.5 1.9-.2 2.29.5 8.41 1.9 2.8v4.3l-3.9 4.8-2.4.9v.7l1.1 1.9v8.6l-.8 9.2-.2 4.7 1 1.4-.2 4.7-.5 1.5 1 1.1 5.1-1.2 13.8-3.5 1.7-2.9 4-1.9z" transform="translate(865.6037923876373,128.19283508505825) scale(0.373721727840711) translate(-865.6037923876373,-128.19283508505825)" fill="#4772b8" stroke-width="0.5" stroke="#325081" vector-effect="non-scaling-stroke" />
  <path id="NJ" d="M823.7 228.3l.1-1.5 2.7-1.3 1.7-2.8 1.7-2.4 3.3-3.2v-1.2l-6.1-4.1-1-2.7-2.7-.3-.1-.9-.7-2.2 2.2-1.1.2-2.9-1.3-1.3.2-1.2 1.9-3.1V193l2.5-3.1 5.6 2.5 6.4 1.9 2.5 1.2.1 1.8-.5 2.7.4 4.5-2.1 1.9-1.1 1 .5.5 2.7-.3 1.1-.8 1.6 3.4.2 9.4.6 1.1-1.1 5.5-3.1 6.5-2.7 4-.8 4.8-2.1 2.4h-.8l-.3-2.7.8-1-.2-1.5-4-.6-4.8-2.3-3.2-2.9-1-2z" transform="translate(834.8182825161853,215.34612260962163) scale(0.7241081022312209) translate(-834.8182825161853,-215.34612260962163)" fill="#4772b8" stroke-width="0.5" stroke="#325081" vector-effect="non-scaling-stroke" />
  <path id="NM" d="M270.2 429.4l-16.7-2.6-1.2 9.6-15.8-2 6-39.7 7-53.2 4.4-30.9 34 3.9 37.4 4.4 32 2.8-.3 10.8-1.4-.1-7.4 97.7-28.4-1.8-38.1-3.7.7 6.3z" transform="translate(297.71826577333815,373.2993304986621) scale(0.11098595480195557) translate(-297.71826577333815,-373.2993304986621)" fill="#4772b8" stroke-width="0.5" stroke="#325081" vector-effect="non-scaling-stroke" />
  <path id="NV" d="M123.1 173.6l38.7 8.5 26 5.2-10.6 53.1-5.4 29.8-3.3 15.5-2.1 11.1-2.6 16.4-1.7 3.1-1.6-.1-1.2-2.6-2.8-.5-1.3-1.1-1.8.1-.9.8-1.8 1.3-.3 7.3-.3 1.5-.5 12.4-1.1 1.8-16.7-25.5-42.1-62.1-12.43-19 8.55-32.6 8.01-31.3z" transform="translate(134.04397228211533,236.36994814227043) scale(0.1271306382848395) translate(-134.04397228211533,-236.36994814227043)" fill="#4772b8" stroke-width="0.5" stroke="#325081" vector-effect="non-scaling-stroke" />
  <path id="NY" d="M843.4 200l.5-2.7-.2-2.4-3-1.5-6.5-2-6-2.6-.6-.4-2.7-.3-2-1.5-2.1-5.9-3.3-.5-2.4-2.4-38.4 8.1-31.6 6-.5-6.5 1.6-1.2 1.3-1.1 1-1.6 1.8-1.1 1.9-1.8.5-1.6 2.1-2.7 1.1-1-.2-1-1.3-3.1-1.8-.2-1.9-6.1 2.9-1.8 4.4-1.5 4-1.3 3.2-.5 6.3-.2 1.9 1.3 1.6.2 2.1-1.3 2.6-1.1 5.2-.5 2.1-1.8 1.8-3.2 1.6-1.9h2.1l1.9-1.1.2-2.3-1.5-2.1-.3-1.5 1.1-2.1v-1.5h-1.8l-1.8-.8-.8-1.1-.2-2.6 5.8-5.5.6-.8 1.5-2.9 2.9-4.5 2.7-3.7 2.1-2.4 2.4-1.8 3.1-1.2 5.5-1.3 3.2.2 4.5-1.5 7.4-2.2.7 4.9 2.4 6.5.8 5-1 4.2 2.6 4.5.8 2-.9 3.2 3.7 1.7 2.7 10.2v5.8l-.6 10.9.8 5.4.7 3.6 1.5 7.3v8.1l-1.1 2.3 2.1 2.7.5.9-1.9 1.8.3 1.3 1.3-.3 1.5-1.3 2.3-2.6 1.1-.6 1.6.6 2.3.2 7.9-3.9 2.9-2.7 1.3-1.5 4.2 1.6-3.4 3.6-3.9 2.9-7.1 5.3-2.6 1-5.8 1.9-4 1.1-1-.4z" transform="translate(807.4750865613349,158.0915397713105) scale(0.41746767279610525) translate(-807.4750865613349,-158.0915397713105)" fill="#4772b8" stroke-width="0.5" stroke="#325081" vector-effect="non-scaling-stroke" />
  <path id="OH" d="M663.8 211.2l1.7 15.5 4.8 41.1 3.9-.2 2.3-.8 3.6 1.8 1.7 4.2 5.4.1 1.8 2h1.7l2.4-1.4 3.1.5 1.5 1.3 1.8-2 2.3-1.4 2.4-.4.6 2.7 1.6 1 2.6 2 .8.2 2-.1 1.2-.6v-2.1l1.7-1.5.1-4.8 1.1-4.2 1.9-1.3 1 .7 1 1.1.7.2.4-.4-.9-2.7v-2.2l1.1-1.4 2.5-3.6 1.3-1.5 2.2.5 2.1-1.5 3-3.3 2.2-3.7.2-5.4.5-5V230l-1.2-3.2 1.2-1.8 1.3-1.2-.6-2.8-4.3-25.6-6.2 3.7-3.9 2.3-3.4 3.7-4 3.9-3.2.8-2.9.5-5.5 2.6-2.1.2-3.4-3.1-5.2.6-2.6-1.5-2.2-1.3z" transform="translate(700.1776915867144,237.43849241541534) scale(0.3532980849533912) translate(-700.1776915867144,-237.43849241541534)" fill="#4772b8" stroke-width="0.5" stroke="#325081" vector-effect="non-scaling-stroke" />
  <path id="OK" d="M411.9 334.9l-1.8 24.3-.9 18 .2 1.6 4 3.6 1.7.9h.9l.9-2.1 1.5 1.9 1.6.1.3-.2.2-1.1 2.8 1.4-.4 3.5 3.8.5 2.5 1 4.2.6 2.3 1.6 2.5-1.7 3.5.7 2.2 3.1 1.2.1v2.3l2.1.7 2.5-2.1 1.8.6 2.7.1.7 2.3 4.4 1.8 1.7-.3 1.9-4.2h1.3l1.1 2.1 4.2.8 3.4 1.3 3 .8 1.6-.7.7-2.7h4.5l1.9.9 2.7-1.9h1.4l.6 1.4h3.6l2-1.8 2.3.6 1.7 2.2 3 1.7 3.4.9 1.9 1.2-.3-37.6-1.4-10.9-.1-8.6-1.5-6.6-.6-6.8.1-4.3-12.6.3-46.3-.5-44.7-2.1-41.5-1.8-.4 10.7z" transform="translate(453.75666096203094,357.2196175553991) scale(0.1728262586167998) translate(-453.75666096203094,-357.2196175553991)" fill="#4772b8" stroke-width="0.5" stroke="#325081" vector-effect="non-scaling-stroke" />
  <path id="OR" d="M67.44 158.9l28.24 7.2 27.52 6.5 17 3.7 8.8-35.1 1.2-4.4 2.4-5.5-.7-1.3-2.5.1-1.3-1.8.6-1.5.4-3.3 4.7-5.7 1.9-.9.9-.8.7-2.7.8-1.1 3.9-5.7 3.7-4 .2-3.26-3.4-2.49-1.2-4.55-13.1-3.83L132.9 85l-14.8.37-1.1-1.31-5.1 1.84-4.5-.48-2.4-1.58-1.3.54-4.68-.29-1.96-1.43-4.84-1.77-1.1-.07-4.45-1.27-1.76 1.52-6.26-.24-5.31-3.85.21-9.28-2.05-3.5-4.1-.6-.7-2.5-2.4-.5-5.8 2.1-2.3 6.5-3.2 10-3.2 6.5-5 14.1-6.5 13.6-8.1 12.6-1.9 2.9-.8 8.6-1.3 6 2.71 3.5z" transform="translate(95.67263850626289,122.26445748018975) scale(0.15694285323952867) translate(-95.67263850626289,-122.26445748018975)" fill="#4772b8" stroke-width="0.5" stroke="#325081" vector-effect="non-scaling-stroke" />
  <path id="PA" d="M736.6 192.2l1.3-.5 5.7-5.5.7 6.9 33.5-6.5 36.9-7.8 2.3 2.3 3.1.4 2 5.6 2.4 1.9 2.8.4.1.1-2.6 3.2v3.1l-1.9 3.1-.2 1.9 1.3 1.3-.2 1.9-2.4 1.1 1 3.4.2 1.1 2.8.3.9 2.5 5.9 3.9v.4l-3.1 3-1.5 2.2-1.7 2.8-2.7 1.2-1.4.3-2.1 1.3-1.6 1.4-22.4 4.3L757 241l-11.3 1.4-3.9.7-5.1-22.4-4.3-25.9z" transform="translate(780.3033473562621,210.76497649069904) scale(0.35746288576212387) translate(-780.3033473562621,-210.76497649069904)" fill="#4772b8" stroke-width="0.5" stroke="#325081" vector-effect="non-scaling-stroke" />
  <path id="RI" d="M873.6 175.7l-.8-4.4-1.6-6 5.7-1.5 1.5 1.3 3.4 4.3 2.8 4.4-2.8 1.4-1.3-.2-1.1 1.8-2.4 1.9-2.8 1.1z" transform="translate(877.0847377964421,171.3097073662684) scale(1.0) translate(-877.0847377964421,-171.3097073662684)" fill="#4772b8" stroke-width="0.5" stroke="#325081" vector-effect="non-scaling-stroke" />
  <path id="SC" d="M759 413.6l-2.1-1-1.9-5.6-2.5-2.3-2.5-.5-1.5-4.6-3-6.5-4.2-1.8-1.9-1.8-1.2-2.6-2.4-2-2.3-1.3-2.2-2.9-3.2-2.4-4.4-1.7-.4-1.4-2.3-2.8-.5-1.5-3.8-5.4-3.4.1-3.9-2.5-1.2-1.2-.2-1.4.6-1.6 2.7-1.3-.8-2 6.4-2.7 9.2-4.5 7.1-.9 16.4-.5 2.3 1.9 1.8 3.5 4.6-.8 12.6-1.5 2.7.8 12.5 7.4 10.1 8.3-5.3 5.4-2.6 6.1-.5 6.3-1.6.8-1.1 2.7-2.4.6-2.1 3.6-2.7 2.7-2.3 3.4-1.6.8-3.6 3.4-2.9.2 1 3.2-5 5.3-2.3 1.6z" transform="translate(754.7912278219106,373.1655573066365) scale(0.29066689612720426) translate(-754.7912278219106,-373.1655573066365)" fill="#4772b8" stroke-width="0.5" stroke="#325081" vector-effect="non-scaling-stroke" />
  <path id="SD" d="M471 181.1l-.9 3.2.4 3 2.6 2-1.2 5.4-1.8 4.1 1.5 3.3.7 1.1-1.3.1-.7-1.6-.6-2-3.3-1.8-4.8-1.5-2.5-1.3-2.9.1-3.9.4-3.8 1.2-5.3-3.8-2.7-2.4-10.9.8-41.5-2.4-35.6-2.2L354 162l2.8-34 .4-5 56.9 3.9 56.9 1.7v2.7l-1.3 1.5-2 1.5-.1 2.2 1.1 2.2 4.1 3.4.5 2.7v35.9z" transform="translate(414.14320754769113,159.11632032524997) scale(0.10830084609310464) translate(-414.14320754769113,-159.11632032524997)" fill="#4772b8" stroke-width="0.5" stroke="#325081" vector-effect="non-scaling-stroke" />
  <path id="TN" d="M670.8 359.6l-13.1 1.2-23.3 2.2-37.6 2.7-11.8.4.9-.6.9-4.5-1.2-3.6 3.9-2.3.4-2.5 1.2-4.3 3-9.5.5-5.6.3-.2 12.3-.2 13.6-.8.1-3.9 3.5-.1 30.4-3.3 54-5.2 10.3-1.5 7.6-.2 2.4-1.9 1.3.3-.1 3.3-.4 1.6-2.4 2.2-1.6 3.6-2-.4-2.4.9-2.2 3.3-1.4-.2-.8-1.2-1.1.4-4.3 4-.8 3.1-4.2 2.2-4.3 3.6-3.8 1.5-4.4 2.8-.6 3.6-2.5.5-2 1.7-.2 4.8z" transform="translate(651.803492207235,342.3341232168347) scale(0.2803612286603758) translate(-651.803492207235,-342.3341232168347)" fill="#4772b8" stroke-width="0.5" stroke="#325081" vector-effect="non-scaling-stroke" />
  <path id="TX" d="M282.8 425.6l37 3.6 29.3 1.9 7.4-97.7 54.4 2.4-1.7 23.3-1 18 .2 2 4.4 4.1 2 1.1h1.8l.5-1.2.7.9 2.4.2 1.1-.6v-.2l1 .5-.4 3.7 4.5.7 2.4.9 4.2.7 2.6 1.8 2.8-1.9 2.7.6 2.2 3.1.8.1v2.1l3.3 1.1 2.5-2.1 1.5.5 2.1.1.6 2.1 5.2 2 2.3-.5 1.9-4h.1l1.1 1.9 4.6.9 3.4 1.3 3.2 1 2.4-1.2.7-2.3h3.6l2.1 1 3-2h.4l.5 1.4h4.7l1.9-1.8 1.3.4 1.7 2.1 3.3 1.9 3.4 1 2.5 1.4 2.7 2 3.1-1.2 2.1.8.7 20 .7 9.5.6 4.1 2.6 4.4.9 4.5 4.2 5.9.3 3.1.6.8-.7 7.7-2.9 4.8 1.3 2.6-.5 2.4-.8 7.2-1.3 3 .3 4.2-5.6 1.6-9.9 4.5-1 1.9-2.6 1.9-2.1 1.5-1.3.8-5.7 5.3-2.7 2.1-5.3 3.2-5.7 2.4-6.3 3.4-1.8 1.5-5.8 3.6-3.4.6-3.9 5.5-4 .3-1 1.9 2.3 1.9-1.5 5.5-1.3 4.5-1.1 3.9-.8 4.5.8 2.4 1.8 7 1 6.1 1.8 2.7-1 1.5-3.1 1.9-5.7-3.9-5.5-1.1-1.3.5-3.2-.6-4.2-3.1-5.2-1.1-7.6-3.4-2.1-3.9-1.3-6.5-3.2-1.9-.6-2.3.6-.6.3-3.4-1.3-.6-.6-1 1.3-4.4-1.6-2.3-3.2-1.3-3.4-4.4-3.6-6.6-4.2-2.6.2-1.9-5.3-12.3-.8-4.2-1.8-1.9-.2-1.5-6-5.3-2.6-3.1v-1.1l-2.6-2.1-6.8-1.1-7.4-.6-3.1-2.3-4.5 1.8-3.6 1.5-2.3 3.2-1 3.7-4.4 6.1-2.4 2.4-2.6-1-1.8-1.1-1.9-.6-3.9-2.3v-.6l-1.8-1.9-5.2-2.1-7.4-7.8-2.3-4.7v-8.1l-3.2-6.5-.5-2.7-1.6-1-1.1-2.1-5-2.1-1.3-1.6-7.1-7.9-1.3-3.2-4.7-2.3-1.5-4.4-2.6-2.9-1.7-.5zm174.4 141.7l-.6-7.1-2.7-7.2-.6-7 1.5-8.2 3.3-6.9 3.5-5.4 3.2-3.6.6.2-4.8 6.6-4.4 6.5-2 6.6-.3 5.2.9 6.1 2.6 7.2.5 5.2.2 1.5z" transform="translate(417.88379991742204,447.90774198489123) scale(0.2103218788444916) translate(-417.88379991742204,-447.90774198489123)" fill="#4772b8" stroke-width="0.5" stroke="#325081" vector-effect="non-scaling-stroke" />
  <path id="UT" d="M228.4 305.9l24.6 3.6 1.9-13.7 7-50.5 2.3-22-32.2-3.5 2.2-13.1 1.8-10.6-34.7-6.1-12.5-2.5-10.6 52.9-5.4 30-3.3 15.4-1.7 9.2z" transform="translate(216.38006332776214,252.78073081666258) scale(0.14620225627229438) translate(-216.38006332776214,-252.78073081666258)" fill="#4772b8" stroke-width="0.5" stroke="#325081" vector-effect="non-scaling-stroke" />
  <path id="VA" d="M834.7 265.2l-.2 2.8-2.9 3.8-.4 4.6.5 3.4-1.8 5-2.2 1.9-1.5-4.6.4-5.4 1.6-4.2.7-3.3-.1-1.7zm-60.3 44.6l-38.6 5.6-4.8-.1-2.2-.3-2.5 1.9-7.3.1-10.3 1.6-6.7.6 4.1-2.6 4.1-2.3v-2.1l5.7-7.3 4.1-3.7 2.2-2.5 3.6 4.3 3.8.9 2.7-1 2-1.5 2.4 1.2 4.6-1.3 1.7-4.4 2.4.7 3.2-2.3 1.6.4 2.8-3.2.2-2.7-.8-1.2 4.8-10.5 1.8-5.2.5-4.7.7-.2 1.1 1.7 1.5 1.2 3.9-.2 1.7-8.1 3-.6.8-2.6 2.8-2.2 1.1-2.1 1.8-4.3.1-4.6 3.6 1.4 6.6 3.1.3-5.2 3.4 1.2-.6 2.9 8.6 3.1 1.4 1.8-.8 3.3-1.3 1.3-.5 1.7.5 2.4 2 1.3 3.9 1.4 2.9 1 4.9.9 2.2 2.1 3.2.4.9 1.2-.4 4.7 1.4 1.1-.5 1.9 1.2.8-.2 1.4-2.7-.1.1 1.6 2.3 1.5.1 1.4 1.8 1.8.5 2.5-2.6 1.4 1.6 1.5 5.8-1.7 3.7 6.2z" transform="translate(778.6110046307543,287.4105100136033) scale(0.31863150884997116) translate(-778.6110046307543,-287.4105100136033)" fill="#4772b8" stroke-width="0.5" stroke="#325081" vector-effect="non-scaling-stroke" />
  <path id="VT" d="M832.7 111.3l2.4 6.5.8 5.3-1 3.9 2.5 4.4.9 2.3-.7 2.6 3.3 1.5 2.9 10.8v5.3l11.5-2.1-1-1.1.6-1.9.2-4.3-1-1.4.2-4.7.8-9.3v-8.5l-1.1-1.8v-1.6l2.8-1.1 3.5-4.4v-3.6l-1.9-2.7-.3-5.79-26.1 6.79z" transform="translate(846.6952744064126,123.6600555997752) scale(0.3106595117341082) translate(-846.6952744064126,-123.6600555997752)" fill="#4772b8" stroke-width="0.5" stroke="#325081" vector-effect="non-scaling-stroke" />
  <path id="WA" d="M74.5 67.7l-2.3-4.3-4.1-.7-.4-2.4-2.5-.6-2.9-.5-1.8 1-2.3-2.9.3-2.9 2.7-.3 1.6-4-2.6-1.1.2-3.7 4.4-.6-2.7-2.7-1.5-7.1.6-2.9v-7.9l-1.8-3.2 2.3-9.4 2.1.5 2.4 2.9 2.7 2.6 3.2 1.9 4.5 2.1 3.1.6 2.9 1.5 3.4 1 2.3-.2V22l1.3-1.1 2.1-1.3.3 1.1.3 1.8-2.3.5-.3 2.1 1.8 1.5 1.1 2.4.6 1.9 1.5-.2.2-1.3-1-1.3-.5-3.2.8-1.8-.6-1.5V19l1.8-3.6-1.1-2.6L91.9 8l.3-.8 1.4-.8L98 7.9l9.7 2.7 8.6 1.9 20 5.7 23 5.7 15 3.49-4.8 17.56-4.5 20.83-3.4 16.25-.4 9.18-12.9-3.72-15.3-3.47-14.5.32-1.1-1.53-5.7 2.09-3.9-.42-2.6-1.79-1.7.65-4.15-.25-1.72-1.32-5.16-1.82-1.18-.16-4.8-1.39-1.92 1.65-5.65-.25-4.61-3.35zm9.6-55.4l2-.2.5 1.4 1.5-1.6h2.3l.8 1.5-1.5 1.7.6.8-.7 2-1.4.4s-.9.1-.9-.2c0-.3 1.5-2.6 1.5-2.6l-1.7-.6-.3 1.5-.7.6-1.5-2.3z" transform="translate(116.42932313535333,48.96862333594689) scale(0.22964131659962222) translate(-116.42932313535333,-48.96862333594689)" fill="#4772b8" stroke-width="0.5" stroke="#325081" vector-effect="non-scaling-stroke" />
  <path id="WI" d="M541.4 109.9l2.9.5 2.9-.6 7.4-3.2 2.9-1.9 2.1-.8 1.9 1.5-1.1 1.1-1.9 3.1-.6 1.9 1 .6 1.8-1 1.1-.2 2.7.8.6 1.1 1.1.2.6-1.1 4 5.3 8.2 1.2 8.2 2.2 2.6 1.1 12.3 2.6 1.6 2.3 3.6 1.2L609 138l1.6 1.4 1.5.9-1.1 2.3-1.8 1.6-2.1 4.7-1.3 2.4.2 1.8 1.5.3 1.1-1.9 1.5-.8.8-2.3 1.9-1.8 2.7-4 4.2-6.3.8-.5.3 1-.2 2.3-2.9 6.8-2.7 5.7-.5 3.2-.6 2.6.8 1.3-.2 2.7-1.9 2.4-.5 1.8.6 3.6.6 3.4-1.5 2.6-.8 2.9-1 3.1 1.1 2.4.6 6.1 1.6 4.5-.2 3-15.9 1.8-17.5 1H567l-.7-1.5-2.9-.4-2.6-1.3-2.3-3.7-.3-3.6 2-2.9-.5-1.4-2.1-2.2-.8-3.3-.6-6.8-2.1-2.5-7-4.5-3.8-5.4-3.4-1-2.2-2.8h-3.2l-2.9-3.3-.5-6.5.1-3.8 1.5-3.1-.8-3.2-2.5-2.8 1.8-5.4 5.2-3.8 1.6-1.9-.2-8.1.2-2.8 2.4-2.8z" transform="translate(575.0892585860553,154.10670427611376) scale(0.23016056930737935) translate(-575.0892585860553,-154.10670427611376)" fill="#4772b8" stroke-width="0.5" stroke="#325081" vector-effect="non-scaling-stroke" />
  <path id="WV" d="M758.9 254.3l5.8-6 2.6-.8 1.6-1.5 1.5-2.2 1.1.3 3.1-.2 4.6-3.6 1.5-.5 1.3 1 2.6 1.2 3 3-.4 4.3-5.4-2.6-4.8-1.8-.1 5.9-2.6 5.7-2.9 2.4-.8 2.3-3 .5-1.7 8.1-2.8.2-1.1-1-1.2-2-2.2.5-.5 5.1-1.8 5.1-5 11 .9 1.4-.1 2-2.2 2.5-1.6-.4-3.1 2.3-2.8-.8-1.8 4.9-3.8 1-2.5-1.3-2.5 1.9-2.3.7-3.2-.8-3.8-4.5-3.5-2.2-2.5-2.5-2.9-3.7-.5-2.3-2.8-1.7-.6-1.3-.2-5.6.3.1 2.4-.2 1.8-1V275l1.7-1.5.1-5.2.9-3.6 1.1-.7.4.3 1 1.1 1.7.5 1.1-1.3-1-3.1v-1.6l3.1-4.6 1.2-1.3 2 .5 2.6-1.8 3.1-3.4 2.4-4.1.2-5.6.5-4.8v-4.9l-1.1-3 .9-1.3.8-.7 4.3 19.3 4.3-.8 11.2-1.3z" transform="translate(741.5724102043855,269.2206707157317) scale(0.22120410882330113) translate(-741.5724102043855,-269.2206707157317)" fill="#4772b8" stroke-width="0.5" stroke="#325081" vector-effect="non-scaling-stroke" />
  <path id="WY" d="M353 161.9l-1.5 25.4-4.4 44-2.7-.3-83.3-9.1-27.9-3 2-12 6.9-41 3.8-24.2 1.3-11.2 48.2 7 59.1 6.5z" transform="translate(295.5221053078019,181.8615494729846) scale(0.09552360916711168) translate(-295.5221053078019,-181.8615494729846)" fill="#4772b8" stroke-width="0.5" stroke="#325081" vector-effect="non-scaling-stroke" />
  </g>
<g id="text" font-family="Helvetica" font-weight="bold">
  <g font-size="28">
	<text id="AKn" x="115.46583593992919" y="505.2009393650921" font-size="4.714045207910317" stroke="#325081" fill="#edf1f8" stroke-width="0.11785113019775792">3</text>
	<text id="HIn" x="312.2548667024681" y="554.9302769423105" font-size="5.443310539518174" stroke="#325081" fill="#edf1f8" stroke-width="0.13608276348795434">4</text>
	<text id="WAn" x="111.71527792744301" y="52.73985950227514" font-size="9.428090415820634" stroke="#325081" fill="#edf1f8" stroke-width="0.23570226039551584">12</text>
	<text id="ORn" x="93.74813760896413" y="125.34365891586775" font-size="7.698003589195011" stroke="#325081" fill="#edf1f8" stroke-width="0.19245008972987526">8</text>
	<text id="CAn" x="65.6316505642214" y="280.13053170138113" font-size="20.0" stroke="#325081" fill="#edf1f8" stroke-width="0.5">54</text>
	<text id="NVn" x="132.37730561544868" y="239.0366148089371" font-size="6.666666666666666" stroke="#325081" fill="#edf1f8" stroke-width="0.16666666666666666">6</text>
	<text id="UTn" x="214.7133966610955" y="255.44739748332924" font-size="6.666666666666666" stroke="#325081" fill="#edf1f8" stroke-width="0.16666666666666666">6</text>
	<text id="IDn" x="188.01959402710648" y="136.73469587799048" font-size="5.443310539518174" stroke="#325081" fill="#edf1f8" stroke-width="0.13608276348795434">4</text>
	<text id="MTn" x="273.67093419930006" y="91.09810222805847" font-size="5.443310539518174" stroke="#325081" fill="#edf1f8" stroke-width="0.13608276348795434">4</text>
	<text id="WYn" x="294.34359400582434" y="183.74716755614872" font-size="4.714045207910317" stroke="#325081" fill="#edf1f8" stroke-width="0.11785113019775792">3</text>
	<text id="COn" x="314.2078138938937" y="276.7223011006208" font-size="8.606629658238704" stroke="#325081" fill="#edf1f8" stroke-width="0.2151657414559676">10</text>
	<text id="AZn" x="193.891387448339" y="366.77527964011347" font-size="9.0267093384844" stroke="#325081" fill="#edf1f8" stroke-width="0.22566773346211">11</text>
	<text id="NMn" x="296.1968142247127" y="375.7336529764628" font-size="6.085806194501846" stroke="#325081" fill="#edf1f8" stroke-width="0.15214515486254615">5</text>
	<text id="TXn" x="409.2771702591833" y="454.7930457114822" font-size="17.21325931647741" stroke="#325081" fill="#edf1f8" stroke-width="0.4303314829119352">40</text>
	<text id="OKn" x="451.9564552124732" y="360.0999467546915" font-size="7.200822998230956" stroke="#325081" fill="#edf1f8" stroke-width="0.1800205749557739">7</text>
	<text id="KSn" x="438.2148391656213" y="294.5404496754695" font-size="6.666666666666666" stroke="#325081" fill="#edf1f8" stroke-width="0.16666666666666666">6</text>
	<text id="NEn" x="416.421565157071" y="226.11452336802586" font-size="6.085806194501846" stroke="#325081" fill="#edf1f8" stroke-width="0.15214515486254615">5</text>
	<text id="SDn" x="412.9646962457135" y="161.0019384084141" font-size="4.714045207910317" stroke="#325081" fill="#edf1f8" stroke-width="0.11785113019775792">3</text>
	<text id="NDn" x="412.22610082433323" y="95.18078600498177" font-size="4.714045207910317" stroke="#325081" fill="#edf1f8" stroke-width="0.11785113019775792">3</text>
	<text id="MNn" x="502.43051753200825" y="122.875221581193" font-size="8.606629658238704" stroke="#325081" fill="#edf1f8" stroke-width="0.2151657414559676">10</text>
	<text id="WIn" x="570.7859437569359" y="157.54935613940924" font-size="8.606629658238704" stroke="#325081" fill="#edf1f8" stroke-width="0.2151657414559676">10</text>
	<text id="ILn" x="588.5711720513987" y="258.89655359235417" font-size="11.863420280034791" stroke="#325081" fill="#edf1f8" stroke-width="0.2965855070008698">19</text>
	<text id="IAn" x="519.2218372172221" y="215.04762578491938" font-size="6.666666666666666" stroke="#325081" fill="#edf1f8" stroke-width="0.16666666666666666">6</text>
	<text id="MOn" x="536.4256575484595" y="297.6324340949281" font-size="8.606629658238704" stroke="#325081" fill="#edf1f8" stroke-width="0.2151657414559676">10</text>
	<text id="ARn" x="542.2169582096823" y="373.8420339713552" font-size="6.666666666666666" stroke="#325081" fill="#edf1f8" stroke-width="0.16666666666666666">6</text>
	<text id="LAn" x="554.4530939009849" y="460.0699344112764" font-size="7.698003589195011" stroke="#325081" fill="#edf1f8" stroke-width="0.19245008972987526">8</text>
	<text id="MSn" x="595.3789181988718" y="419.4075284356644" font-size="6.666666666666666" stroke="#325081" fill="#edf1f8" stroke-width="0.16666666666666666">6</text>
	<text id="ALn" x="647.2927366087519" y="414.0791638160601" font-size="8.16496580927726" stroke="#325081" fill="#edf1f8" stroke-width="0.2041241452319315">9</text>
	<text id="GAn" x="706.7824747124687" y="412.33971589924977" font-size="10.886621079036347" stroke="#325081" fill="#edf1f8" stroke-width="0.2721655269759087">16</text>
	<text id="FLn" x="735.9066093102424" y="499.15661277881657" font-size="14.907119849998598" stroke="#325081" fill="#edf1f8" stroke-width="0.37267799624996495">30</text>
	<text id="SCn" x="752.7499863695913" y="376.4315436303474" font-size="8.16496580927726" stroke="#325081" fill="#edf1f8" stroke-width="0.2041241452319315">9</text>
	<text id="NCn" x="772.3943172169897" y="335.8640566409679" font-size="10.886621079036347" stroke="#325081" fill="#edf1f8" stroke-width="0.2721655269759087">16</text>
	<text id="TNn" x="647.2901375379928" y="345.9448069522285" font-size="9.0267093384844" stroke="#325081" fill="#edf1f8" stroke-width="0.22566773346211">11</text>
	<text id="KYn" x="664.1970071440384" y="306.5344189300473" font-size="7.698003589195011" stroke="#325081" fill="#edf1f8" stroke-width="0.19245008972987526">8</text>
	<text id="INn" x="639.0160382115282" y="256.7191164007136" font-size="9.0267093384844" stroke="#325081" fill="#edf1f8" stroke-width="0.22566773346211">11</text>
	<text id="MIn" x="642.9809855539993" y="158.6522070529137" font-size="10.540925533894598" stroke="#325081" fill="#edf1f8" stroke-width="0.26352313834736496">15</text>
	<text id="OHn" x="694.5668555098466" y="241.9271612769096" font-size="11.221672153735643" stroke="#325081" fill="#edf1f8" stroke-width="0.28054180384339106">17</text>
	<text id="WVn" x="740.2115825695059" y="271.397994931539" font-size="5.443310539518174" stroke="#325081" fill="#edf1f8" stroke-width="0.13608276348795434">4</text>
	<text id="VAn" x="773.7044708161278" y="291.33573706530456" font-size="9.813067629253162" stroke="#325081" fill="#edf1f8" stroke-width="0.24532669073132907">13</text>
	<text id="PAn" x="774.3716372162447" y="215.51034460271296" font-size="11.863420280034791" stroke="#325081" fill="#edf1f8" stroke-width="0.2965855070008698">19</text>
	<text id="NYn" x="800.274263563104" y="163.85219816989525" font-size="14.401645996461912" stroke="#325081" fill="#edf1f8" stroke-width="0.3600411499115478">28</text>
	<text id="MEn" x="889.6168580611628" y="84.80228397854142" font-size="5.443310539518174" stroke="#325081" fill="#edf1f8" stroke-width="0.13608276348795434">4</text>
	
	
  </g>
  <g font-size="22">
	<text id="NHn" x="800" y="58" font-size="16.0" stroke="#325081" fill="#edf1f8" stroke-width="0.5">NH 4</text>
	<text id="VTn" x="790" y="82" font-size="16.0" stroke="#325081" fill="#edf1f8" stroke-width="0.5">VT 3</text>
	<text id="MAn" x="927" y="164" font-size="16.0" stroke="#325081" fill="#edf1f8" stroke-width="0.5">MA 11</text>
	<text id="RIn" x="925" y="199" font-size="16.0" stroke="#325081" fill="#edf1f8" stroke-width="0.5">RI 4</text>
	<text id="CTn" x="918" y="228" font-size="16.0" stroke="#325081" fill="#edf1f8" stroke-width="0.5">CT 7</text>
	<text id="NJn" x="898" y="260" font-size="16.0" stroke="#325081" fill="#edf1f8" stroke-width="0.5">NJ 14</text>
	<text id="DEn" x="891" y="284" font-size="16.0" stroke="#325081" fill="#edf1f8" stroke-width="0.5">DE 3</text>
	<text id="MDn" x="883" y="305" font-size="16.0" stroke="#325081" fill="#edf1f8" stroke-width="0.5">MD 10</text>
	
  </g>
</g>



</svg>